<svg version="1.1" id="Layer_1" xmlns="http://www.w3.org/2000/svg" xmlns:xlink="http://www.w3.org/1999/xlink" x="0px" y="0px"
	 width="100%" viewBox="0 0 1920 1080" enable-background="new 0 0 1920 1080" xml:space="preserve">
<path fill="#FEFEFE" opacity="1.000000" stroke="none" 
	d="
M1920.000000,1.000001 
	C1920.333374,1.166580 1920.943848,1.315739 1920.955444,1.502534 
	C1921.038940,2.830386 1921.000000,4.165930 1921.000000,5.499028 
	C1921.000000,363.935699 1921.000000,722.372375 1921.000000,1081.000000 
	C1504.303955,1081.000000 1087.607910,1081.000000 670.490051,1080.655273 
	C670.594055,1079.493774 670.995117,1078.553101 671.664612,1077.879272 
	C680.643921,1068.843140 689.609558,1059.792480 698.685059,1050.853516 
	C705.463074,1044.177490 712.526550,1037.788452 719.230408,1031.040771 
	C732.381775,1017.803345 745.280640,1004.315002 758.445923,991.091736 
	C786.313293,963.101929 814.406189,935.335876 842.184875,907.258667 
	C883.985657,865.008850 925.608704,822.583130 967.280334,780.205627 
	C980.117126,767.151428 992.748718,753.893616 1005.689270,740.943787 
	C1017.722900,728.901550 1030.170410,717.272644 1042.201294,705.227661 
	C1054.549561,692.864990 1066.558105,680.163574 1078.848633,667.742310 
	C1081.345581,665.218811 1081.210205,663.516113 1078.741821,661.166626 
	C1073.710693,656.377747 1068.831177,651.424500 1064.000366,646.431396 
	C1058.605347,640.854980 1053.481323,635.010254 1047.973999,629.549805 
	C1039.305542,620.955078 1030.481567,612.513489 1021.583252,604.156250 
	C1018.440552,601.204651 1018.460938,598.967163 1021.529968,595.878113 
	C1048.042969,569.192444 1074.381470,542.333374 1100.887451,515.640625 
	C1142.078613,474.159027 1183.483521,432.888855 1224.557739,391.291992 
	C1248.973511,366.565521 1272.919189,341.375122 1297.101440,316.417694 
	C1301.275757,312.109467 1305.515381,307.860199 1309.840942,303.704346 
	C1312.367310,301.277100 1312.682495,299.177856 1310.074707,296.518158 
	C1301.327759,287.597015 1292.857422,278.401093 1284.005615,269.587128 
	C1271.062622,256.699463 1257.870117,244.062653 1244.807739,231.294434 
	C1240.771484,227.348938 1236.864990,223.269806 1232.799194,219.355606 
	C1230.385986,217.032410 1227.921387,216.048111 1225.179199,219.258850 
	C1222.838379,221.999695 1220.156128,224.459381 1217.534912,226.948517 
	C1205.110229,238.747101 1192.552246,250.407028 1180.235474,262.316772 
	C1163.839966,278.170563 1147.560669,294.145996 1131.348755,310.187683 
	C1115.506226,325.863739 1099.865356,341.743256 1084.040039,357.436798 
	C1053.558838,387.664062 1023.022522,417.835571 992.476196,447.996979 
	C987.867615,452.547394 982.959656,456.797211 978.400696,461.394836 
	C963.277161,476.646637 948.278076,492.021820 933.156799,507.275970 
	C930.741089,509.712860 928.141663,510.043610 925.444946,507.159882 
	C921.385010,502.818512 917.121094,498.663239 912.855042,494.520325 
	C907.528076,489.346985 902.036743,484.341644 896.752258,479.126190 
	C890.651184,473.104950 884.676025,466.955322 878.688049,460.820557 
	C874.200867,456.223389 869.822937,451.519196 865.317932,446.939850 
	C860.213074,441.750641 855.067200,436.599731 849.853333,431.520264 
	C844.534607,426.338684 838.826111,421.526245 833.816284,416.067535 
	C828.988770,410.807404 828.992615,410.510956 823.920532,415.582184 
	C791.629028,447.868530 759.473083,480.292145 726.972656,512.366760 
	C717.136902,522.073608 706.350830,530.817505 696.004028,539.636841 
	C696.569275,538.118896 696.877991,536.717651 697.730713,535.852600 
	C706.427490,527.029724 715.151672,518.231812 723.990662,509.551605 
	C732.571716,501.124512 741.433594,492.980347 749.922729,484.463348 
	C760.850220,473.500031 771.494324,462.254883 782.328247,451.197449 
	C789.014099,444.373688 795.735107,437.578705 802.627441,430.965729 
	C805.308228,428.393616 805.283447,426.605804 802.633240,424.024109 
	C797.333740,418.861603 792.370544,413.355804 787.189575,408.069061 
	C780.169556,400.905762 773.103699,393.786713 766.004456,386.701782 
	C759.831482,380.541260 758.925720,380.608002 753.234558,387.307770 
	C752.594910,388.060760 752.286865,389.223328 751.517578,389.714722 
	C749.089539,391.265625 746.515259,392.587616 744.142395,393.698792 
	C760.745544,376.878448 777.065308,360.216522 793.695435,343.870361 
	C817.272766,320.695740 841.088501,297.763763 864.778992,274.704041 
	C869.504883,270.103912 870.050293,269.893250 874.860168,274.445038 
	C880.628662,279.904022 886.127075,285.648315 891.746094,291.265350 
	C899.096558,298.613159 906.598022,305.817963 913.735229,313.367279 
	C916.876343,316.689850 919.285583,316.112823 922.122375,313.383942 
	C929.909363,305.893036 937.867371,298.574615 945.511841,290.941711 
	C1001.506714,235.031525 1057.442871,179.062592 1113.384644,123.099167 
	C1114.669678,121.813622 1115.801636,120.375069 1117.302979,118.860321 
	C1155.778809,80.599991 1193.961548,42.492195 1232.102783,4.342775 
	C1232.975952,3.469329 1233.378174,2.124803 1234.000000,0.999999 
	C1380.362671,1.000000 1526.725464,1.000000 1673.453613,1.323942 
	C1652.542603,23.148054 1631.265991,44.648224 1609.642334,66.100586 
	C1602.707642,59.733932 1596.040283,53.495754 1589.549194,47.079266 
	C1576.593994,34.272854 1561.433472,34.124901 1548.712646,46.952759 
	C1532.766479,63.033195 1516.966675,79.259056 1501.006836,95.325798 
	C1474.118408,122.394485 1447.156006,149.389816 1420.219360,176.410706 
	C1412.499390,184.154877 1408.828003,193.172577 1412.080444,204.040573 
	C1413.012329,207.154419 1414.369629,210.567307 1416.581909,212.804672 
	C1435.670776,232.109756 1455.000122,251.177216 1474.290405,270.763977 
	C1471.781860,305.369659 1480.116455,336.392395 1502.080444,362.978912 
	C1525.914185,391.828613 1556.734375,407.278351 1594.296875,409.029938 
	C1614.510742,409.972534 1633.598389,405.522003 1652.319458,397.835754 
	C1681.299683,426.514191 1709.871582,455.119507 1738.745239,483.416992 
	C1755.752686,500.085052 1783.222778,500.517792 1800.904663,484.756012 
	C1805.980713,480.231140 1810.607788,475.199493 1815.401489,470.361420 
	C1836.009399,449.562439 1856.602783,428.749054 1877.539062,407.950989 
	C1880.691406,410.484558 1883.542725,412.968567 1886.313965,415.539001 
	C1894.413330,423.051422 1903.567749,425.683807 1914.304321,422.037811 
	C1918.218872,420.708435 1919.980103,418.810760 1919.967163,414.214447 
	C1919.816650,360.935669 1919.964844,307.656097 1919.964966,254.376770 
	C1919.964966,206.592560 1919.879272,158.808334 1919.889404,110.557289 
	C1919.832520,91.734596 1919.717529,73.378746 1919.710693,54.562344 
	C1919.879272,36.401196 1919.939697,18.700598 1920.000000,1.000001 
z"/>
<path fill="#FEFEFE" opacity="1.000000" stroke="none" 
	d="
M0.999999,614.000000 
	C1.000000,588.644653 1.000000,563.289307 1.337251,537.418457 
	C5.082558,533.792175 8.635148,530.823608 11.867218,527.539551 
	C17.775457,521.536316 23.368668,515.220947 29.326826,509.269623 
	C35.402260,503.201172 41.908348,497.562622 47.957432,491.469360 
	C57.263268,482.095490 66.269775,472.425140 75.532677,463.007874 
	C85.524712,452.849274 95.688141,442.859558 105.737770,432.757324 
	C166.794098,371.381531 227.837555,309.992950 288.890564,248.613861 
	C295.994171,241.472305 303.129333,234.362076 310.251251,227.238678 
	C314.207367,223.281723 318.375580,219.507751 322.015991,215.279205 
	C323.377472,213.697784 324.770447,209.963028 324.002106,209.081589 
	C318.923889,203.255859 313.260986,197.939819 307.788757,192.457550 
	C303.023804,187.683823 298.261444,182.907562 293.493896,178.136444 
	C287.286591,171.924423 281.099426,165.692017 274.857758,159.514709 
	C270.292236,154.996292 265.588531,150.616409 261.062592,146.059372 
	C255.351044,140.308563 249.905853,134.281311 243.982925,128.762756 
	C242.855743,127.712532 239.426620,127.620308 238.120132,128.560242 
	C234.281738,131.321716 230.897324,134.742691 227.477692,138.052689 
	C214.802002,150.321960 202.049942,162.516510 189.566406,174.979355 
	C128.500626,235.943878 67.517792,296.991455 6.465030,357.969055 
	C4.881259,359.550903 2.832107,360.666779 0.999997,362.000000 
	C1.000000,241.719711 1.000000,121.439415 1.000000,1.000000 
	C208.688660,1.000000 416.377350,1.000000 624.499207,1.344639 
	C610.774902,16.386450 596.611145,31.077578 582.463867,45.784565 
	C578.327209,50.084900 574.082092,54.294945 570.164673,58.788708 
	C564.995972,64.717773 560.564209,71.369644 554.917542,76.771996 
	C551.450806,80.088768 551.812195,82.190292 554.502930,84.935165 
	C557.511536,88.004349 560.828613,90.769386 563.871399,93.807091 
	C575.572632,105.488899 587.210999,117.233696 598.886658,128.941147 
	C605.245911,135.317749 611.635498,141.664139 618.006958,148.028519 
	C626.674744,156.686646 635.569458,165.134354 643.898682,174.106979 
	C647.627625,178.123947 653.155762,181.308548 652.854858,188.299866 
	C647.573120,193.798431 642.463013,199.024231 637.295898,204.192963 
	C584.635437,256.869263 531.963135,309.533691 479.307617,362.214874 
	C477.093628,364.429962 475.079041,366.844910 472.855164,369.049347 
	C466.589752,375.260071 460.067322,381.224731 454.026367,387.644196 
	C449.588074,392.360626 449.924622,394.419708 454.466827,398.963226 
	C479.442505,423.945923 504.424591,448.922180 529.401733,473.903442 
	C533.997375,478.499847 533.961914,478.476562 529.285522,483.227905 
	C521.415649,491.223877 513.457458,499.139038 505.790619,507.326263 
	C501.126099,512.307373 497.234314,518.023071 492.479034,522.905945 
	C479.958954,535.762207 467.091949,548.279785 454.485626,561.053223 
	C442.797821,572.896057 431.313507,584.939514 419.654236,596.810852 
	C411.201843,605.416870 402.610291,613.886230 394.080505,622.416199 
	C356.847748,659.649719 319.622253,696.890442 282.349640,734.083984 
	C281.119202,735.311829 279.409637,736.059509 277.608185,736.912476 
	C276.738617,736.426514 276.166992,736.082458 275.632355,735.688232 
	C242.833862,711.507568 200.830460,711.985962 168.840591,737.193115 
	C160.889969,743.457947 153.536118,750.480103 145.576965,757.077454 
	C143.620834,755.621094 141.928680,754.312256 140.382629,752.848999 
	C134.864471,747.626221 129.395905,742.351013 123.658936,736.830200 
	C119.280693,720.389282 108.782089,710.543457 92.851036,705.658325 
	C62.684204,675.286926 32.660652,645.210693 2.624442,615.146973 
	C2.162805,614.684937 1.544948,614.378845 0.999999,614.000000 
M120.004333,105.439224 
	C120.952965,97.283485 116.871658,91.241608 110.466293,87.571419 
	C103.376305,83.508949 95.706635,83.402946 88.467575,88.664101 
	C80.949936,94.127708 77.953384,103.418854 81.520409,111.981773 
	C85.146233,120.685852 94.840614,126.375801 103.551422,124.912491 
	C112.727531,123.371010 119.686897,115.512505 120.004333,105.439224 
M112.250572,637.525879 
	C115.962410,631.689453 116.113548,625.457214 112.929543,619.622009 
	C109.128914,612.656677 103.301559,609.106506 94.758186,608.735352 
	C86.610611,608.381409 77.366554,616.720398 76.107147,625.730957 
	C74.909180,634.301941 80.405334,643.485657 88.834328,645.974670 
	C98.644524,648.871521 105.561363,646.980286 112.250572,637.525879 
M239.919800,489.841614 
	C234.765625,482.402649 228.491913,479.858856 220.946823,482.148682 
	C212.494629,484.713806 207.737457,493.784393 210.305023,502.439484 
	C212.667908,510.404572 221.332794,515.147217 229.474503,513.356873 
	C240.244385,510.988647 245.028061,499.467987 239.919800,489.841614 
M284.899323,450.221558 
	C284.437195,449.157013 284.029877,448.064545 283.504181,447.032349 
	C279.734161,439.630035 270.112335,434.767792 260.683136,440.579407 
	C253.585983,444.953674 250.709244,454.462433 254.884872,461.737396 
	C259.703857,470.133240 269.977509,472.929108 278.044708,467.955200 
	C284.410767,464.030121 285.660126,457.923492 284.899323,450.221558 
M387.688354,318.704224 
	C387.458649,320.830688 387.043274,322.956604 387.036743,325.083771 
	C387.021790,329.964203 390.534241,334.705811 394.898987,335.998688 
	C401.811432,338.046295 406.760559,336.396698 410.537811,330.786041 
	C412.884949,327.299652 412.623901,319.886780 410.037781,316.587433 
	C403.705597,308.508881 395.143250,309.049530 387.688354,318.704224 
M434.460999,285.787689 
	C435.547150,286.803680 436.587341,288.623138 437.727844,288.688354 
	C441.487915,288.903259 446.026611,289.675964 448.831451,287.929718 
	C451.071136,286.535370 452.443329,281.611938 452.032257,278.545654 
	C451.207581,272.394379 445.579529,269.569489 439.747528,271.242371 
	C434.551392,272.732910 431.952087,279.078033 434.460999,285.787689 
M130.440475,580.112732 
	C128.084427,585.616455 130.048981,591.434021 134.936050,593.425293 
	C140.432892,595.665039 145.528900,593.534790 148.020828,587.955505 
	C149.662567,584.279785 147.779236,578.311829 144.304611,576.179382 
	C140.024368,573.552490 134.719269,574.831299 130.440475,580.112732 
M173.000549,540.591064 
	C173.292252,547.102173 176.907135,551.039307 182.540527,550.981445 
	C187.369461,550.931885 191.656494,547.040894 191.992783,542.402466 
	C192.371506,537.178650 188.356094,532.000427 183.347672,531.253967 
	C178.714172,530.563293 174.160187,534.312378 173.000549,540.591064 
M365.235779,369.618256 
	C366.401703,364.478943 364.554504,360.471924 360.167786,358.624451 
	C355.662781,356.727203 350.522766,358.063904 348.133026,361.754150 
	C344.741241,366.991791 346.371429,372.953064 352.031281,376.009308 
	C357.338348,378.874969 362.358856,376.697754 365.235779,369.618256 
M478.941315,243.391953 
	C484.286438,248.186340 490.198914,248.100281 494.224304,243.169540 
	C497.417450,239.258209 496.412903,233.205246 491.948120,229.454178 
	C488.651398,226.684448 483.809021,226.731506 480.068512,229.569733 
	C476.621521,232.185242 476.001312,237.238159 478.941315,243.391953 
M320.957245,405.922119 
	C320.094177,404.922760 319.352753,403.774933 318.346405,402.950500 
	C314.553864,399.843414 310.470062,400.544861 306.809235,402.911835 
	C303.035278,405.351959 301.965820,409.388031 303.428375,413.463226 
	C304.809235,417.310638 307.323059,420.179321 312.234314,420.073273 
	C320.443268,419.896027 323.445251,415.658997 320.957245,405.922119 
M149.616791,68.566063 
	C149.744400,67.260010 149.942566,65.956345 149.987015,64.647469 
	C150.150482,59.834747 147.542007,56.824020 143.288803,55.309479 
	C139.119232,53.824726 134.332794,55.767735 132.206604,59.723621 
	C130.036819,63.760609 130.421310,67.654961 133.629959,71.134964 
	C138.058838,75.938377 143.359970,75.302109 149.616791,68.566063 
z"/>
<path fill="#F8F8F8" opacity="1.000000" stroke="none" 
	d="
M696.000000,540.002441 
	C706.350830,530.817505 717.136902,522.073608 726.972656,512.366760 
	C759.473083,480.292145 791.629028,447.868530 823.920532,415.582184 
	C828.992615,410.510956 828.988770,410.807404 833.816284,416.067535 
	C838.826111,421.526245 844.534607,426.338684 849.853333,431.520264 
	C855.067200,436.599731 860.213074,441.750641 865.317932,446.939850 
	C869.822937,451.519196 874.200867,456.223389 878.688049,460.820557 
	C884.676025,466.955322 890.651184,473.104950 896.752258,479.126190 
	C902.036743,484.341644 907.528076,489.346985 912.855042,494.520325 
	C917.121094,498.663239 921.385010,502.818512 925.444946,507.159882 
	C928.141663,510.043610 930.741089,509.712860 933.156799,507.275970 
	C948.278076,492.021820 963.277161,476.646637 978.400696,461.394836 
	C982.959656,456.797211 987.867615,452.547394 992.476196,447.996979 
	C1023.022522,417.835571 1053.558838,387.664062 1084.040039,357.436798 
	C1099.865356,341.743256 1115.506226,325.863739 1131.348755,310.187683 
	C1147.560669,294.145996 1163.839966,278.170563 1180.235474,262.316772 
	C1192.552246,250.407028 1205.110229,238.747101 1217.534912,226.948517 
	C1220.156128,224.459381 1222.838379,221.999695 1225.179199,219.258850 
	C1227.921387,216.048111 1230.385986,217.032410 1232.799194,219.355606 
	C1236.864990,223.269806 1240.771484,227.348938 1244.807739,231.294434 
	C1257.870117,244.062653 1271.062622,256.699463 1284.005615,269.587128 
	C1292.857422,278.401093 1301.327759,287.597015 1310.074707,296.518158 
	C1312.682495,299.177856 1312.367310,301.277100 1309.840942,303.704346 
	C1305.515381,307.860199 1301.275757,312.109467 1297.101440,316.417694 
	C1272.919189,341.375122 1248.973511,366.565521 1224.557739,391.291992 
	C1183.483521,432.888855 1142.078613,474.159027 1100.887451,515.640625 
	C1074.381470,542.333374 1048.042969,569.192444 1021.529968,595.878113 
	C1018.460938,598.967163 1018.440552,601.204651 1021.583252,604.156250 
	C1030.481567,612.513489 1039.305542,620.955078 1047.973999,629.549805 
	C1053.481323,635.010254 1058.605347,640.854980 1064.000366,646.431396 
	C1068.831177,651.424500 1073.710693,656.377747 1078.741821,661.166626 
	C1081.210205,663.516113 1081.345581,665.218811 1078.848633,667.742310 
	C1066.558105,680.163574 1054.549561,692.864990 1042.201294,705.227661 
	C1030.170410,717.272644 1017.722900,728.901550 1005.689270,740.943787 
	C992.748718,753.893616 980.117126,767.151428 967.280334,780.205627 
	C925.608704,822.583130 883.985657,865.008850 842.184875,907.258667 
	C814.406189,935.335876 786.313293,963.101929 758.445923,991.091736 
	C745.280640,1004.315002 732.381775,1017.803345 719.230408,1031.040771 
	C712.526550,1037.788452 705.463074,1044.177490 698.685059,1050.853516 
	C689.609558,1059.792480 680.643921,1068.843140 671.664612,1077.879272 
	C670.995117,1078.553101 670.594055,1079.493774 670.034119,1080.655273 
	C657.645752,1081.000000 645.291565,1081.000000 632.506348,1080.641602 
	C638.969299,1070.061401 637.624939,1058.470703 629.524658,1051.856689 
	C622.993347,1046.523804 616.148315,1045.346802 608.786621,1048.747070 
	C601.642334,1052.046753 596.222473,1057.328979 597.144409,1065.972290 
	C597.687195,1071.060791 599.666626,1075.995850 601.000000,1081.000000 
	C579.645752,1081.000000 558.291565,1081.000000 536.502686,1080.655396 
	C537.187866,1078.898193 538.182312,1077.360718 539.446411,1076.091919 
	C555.433350,1060.047241 571.468262,1044.050293 587.458557,1028.008911 
	C588.854858,1026.608276 589.968811,1024.930542 591.310547,1023.470398 
	C593.236450,1021.374146 593.359009,1019.535828 591.078918,1017.536926 
	C587.122437,1014.068115 583.130127,1010.616028 579.432617,1006.880005 
	C557.659729,984.880493 535.977783,962.791016 514.241394,940.755249 
	C508.460907,934.895203 507.835388,935.110779 502.073547,940.930359 
	C474.894714,968.381348 447.612457,995.729919 420.386536,1023.134338 
	C418.823608,1024.707397 417.432587,1026.451294 415.664246,1027.958252 
	C381.272949,993.749573 347.178192,959.699158 313.092896,925.639282 
	C312.629761,925.176453 312.285858,924.594299 312.197510,923.916626 
	C313.839630,922.509644 315.202728,921.286194 316.496582,919.993408 
	C333.985565,902.518799 351.465027,885.034546 368.946808,867.552673 
	C401.253052,835.246277 433.559204,802.939758 465.865356,770.633301 
	C480.760956,755.737732 495.656708,740.842163 510.552429,725.946655 
	C533.692383,702.806946 556.844055,679.678894 579.940308,656.495605 
	C581.197205,655.234009 581.990784,653.510803 583.329468,651.972656 
	C584.773438,650.961914 585.887939,649.980957 587.295227,648.859924 
	C589.058716,647.147400 590.529358,645.574951 592.289001,643.860718 
	C593.052795,642.812683 593.527588,641.906311 594.221191,640.892273 
	C594.712830,640.585632 594.899536,640.324890 595.321289,639.975830 
	C596.429199,639.299438 597.215820,638.649719 598.295166,637.859863 
	C600.058594,636.147339 601.529297,634.574890 603.288147,632.865356 
	C604.718323,631.485535 605.860352,630.242737 607.301636,628.855225 
	C611.067322,625.141174 614.533630,621.571838 618.292969,617.861938 
	C620.058044,616.147644 621.530212,614.573792 623.298218,612.857666 
	C625.395996,610.811035 627.197998,608.906738 629.299561,606.856384 
	C631.733582,604.473572 633.868042,602.236755 636.268677,599.880493 
	C637.023193,599.174805 637.511597,598.588623 638.299316,597.857483 
	C641.733276,594.475037 644.867859,591.237488 648.221191,587.892273 
	C648.712830,587.585632 648.899536,587.324890 649.299438,586.857422 
	C653.066711,583.141663 656.534607,579.570862 660.282959,575.869629 
	C661.375610,574.826965 662.187805,573.914673 663.298706,572.857971 
	C666.065674,570.142334 668.534058,567.571167 671.282959,564.869690 
	C672.375671,563.827087 673.187805,562.914734 674.298706,561.857971 
	C677.065735,559.142334 679.534119,556.571167 682.282959,553.869690 
	C683.375610,552.827087 684.187805,551.914734 685.299316,550.857483 
	C688.733276,547.475037 691.867859,544.237488 695.221191,540.892212 
	C695.712708,540.585449 695.899414,540.324768 696.000000,540.002441 
M718.861572,993.005676 
	C722.181763,980.541626 715.348083,970.666504 707.399292,966.623718 
	C695.487183,960.565063 681.394836,965.540710 675.919922,978.175415 
	C671.103516,989.290527 677.486023,1003.928345 689.151428,1007.874878 
	C700.027100,1011.554382 713.038574,1007.869995 718.861572,993.005676 
M837.081665,860.645508 
	C832.932190,848.179382 822.661743,843.822937 811.733093,846.706787 
	C801.274475,849.466614 795.207642,860.832458 798.047668,871.427979 
	C800.789795,881.658264 812.361938,888.312683 822.703186,885.605896 
	C833.484741,882.783813 839.866089,872.195251 837.081665,860.645508 
M857.660767,835.994263 
	C859.274536,835.662659 860.976318,835.553223 862.484863,834.955872 
	C866.303711,833.443420 867.688293,830.425415 868.098877,826.380981 
	C868.608459,821.362671 866.034424,818.115417 862.185974,816.453064 
	C858.931213,815.046997 855.134583,814.230774 851.658447,817.685852 
	C845.088867,824.216003 847.296692,832.559509 857.660767,835.994263 
M661.770142,1018.476746 
	C660.520081,1018.035828 659.300842,1017.443848 658.014404,1017.181396 
	C653.524780,1016.265686 647.641235,1020.991455 647.027649,1025.915527 
	C646.404663,1030.915649 650.604492,1035.795654 655.619507,1036.014404 
	C659.663757,1036.190796 663.570618,1035.743164 665.166504,1031.424561 
	C666.855286,1026.854492 667.020142,1022.279602 661.770142,1018.476746 
M771.450806,904.159546 
	C769.838928,908.706177 772.677307,911.804138 776.095703,912.486145 
	C778.269165,912.919739 782.185120,910.393982 783.342773,908.167358 
	C784.148926,906.616882 782.277771,902.400085 780.395508,901.015686 
	C777.336670,898.766052 773.739502,899.346313 771.450806,904.159546 
M739.812744,944.908020 
	C738.310913,944.582031 736.787659,943.985107 735.320740,944.100952 
	C734.900513,944.134155 734.117126,946.425049 734.452209,947.326965 
	C734.821899,948.322327 736.286133,948.911011 737.273621,949.676880 
	C738.166626,948.341553 739.059631,947.006165 739.812744,944.908020 
z"/>
<path fill="#F5F5F5" opacity="1.000000" stroke="none" 
	d="
M277.923401,737.031006 
	C279.409637,736.059509 281.119202,735.311829 282.349640,734.083984 
	C319.622253,696.890442 356.847748,659.649719 394.080505,622.416199 
	C402.610291,613.886230 411.201843,605.416870 419.654236,596.810852 
	C431.313507,584.939514 442.797821,572.896057 454.485626,561.053223 
	C467.091949,548.279785 479.958954,535.762207 492.479034,522.905945 
	C497.234314,518.023071 501.126099,512.307373 505.790619,507.326263 
	C513.457458,499.139038 521.415649,491.223877 529.285522,483.227905 
	C533.961914,478.476562 533.997375,478.499847 529.401733,473.903442 
	C504.424591,448.922180 479.442505,423.945923 454.466827,398.963226 
	C449.924622,394.419708 449.588074,392.360626 454.026367,387.644196 
	C460.067322,381.224731 466.589752,375.260071 472.855164,369.049347 
	C475.079041,366.844910 477.093628,364.429962 479.307617,362.214874 
	C531.963135,309.533691 584.635437,256.869263 637.295898,204.192963 
	C642.463013,199.024231 647.573120,193.798431 653.154358,188.155289 
	C675.771484,165.600601 697.956299,143.502151 720.099731,121.362259 
	C722.670044,118.792366 724.908752,115.890671 727.480347,113.322189 
	C732.141663,108.666405 737.159729,104.350525 741.622803,99.517784 
	C747.453735,93.203918 752.749512,86.397552 758.540710,80.044861 
	C763.139465,75.000206 763.328125,74.833183 758.544739,70.048080 
	C737.465210,48.960491 716.353638,27.904821 695.349915,6.742025 
	C693.838806,5.219486 693.098633,2.931866 692.000000,0.999991 
	C798.687561,1.000000 905.375122,1.000000 1012.497375,1.344602 
	C1012.736206,2.142793 1012.651550,2.705605 1012.328674,3.034388 
	C995.719543,19.945913 979.121887,36.868923 962.450562,53.718990 
	C953.050476,63.219872 943.208984,72.302986 934.117432,82.086365 
	C908.910034,109.211746 880.694702,133.386154 857.026367,162.072235 
	C846.691406,174.598267 833.960266,185.147278 822.106506,196.801300 
	C822.347473,197.221786 822.616516,198.044983 823.162292,198.592377 
	C841.036011,216.519470 858.942810,234.413483 876.824219,252.332901 
	C879.052734,254.566193 881.154663,254.533356 883.244690,252.241547 
	C886.373596,248.810501 889.188110,245.030334 892.642029,241.969315 
	C904.652283,231.325394 914.814270,218.910202 927.296021,208.558868 
	C944.359924,194.407486 959.479004,177.890549 975.249023,162.203903 
	C1004.414185,133.192871 1033.443237,104.045097 1062.544800,74.970062 
	C1063.948364,73.567810 1065.503174,72.316978 1067.268799,71.249535 
	C1067.965820,74.621536 1064.368408,81.312080 1061.900391,82.907341 
	C1057.958618,85.455154 1054.224976,88.324921 1050.732178,90.823349 
	C1059.066284,98.701485 1067.459106,106.422417 1075.599365,114.400856 
	C1081.531006,120.214531 1087.003906,126.499390 1093.000366,132.240891 
	C1094.002197,133.200211 1097.221558,133.233368 1098.393433,132.345062 
	C1101.095093,130.296997 1102.887695,127.059883 1105.567139,124.969307 
	C1108.952759,122.327805 1111.365479,117.429787 1117.005005,119.007866 
	C1115.801636,120.375069 1114.669678,121.813622 1113.384644,123.099167 
	C1057.442871,179.062592 1001.506714,235.031525 945.511841,290.941711 
	C937.867371,298.574615 929.909363,305.893036 922.122375,313.383942 
	C919.285583,316.112823 916.876343,316.689850 913.735229,313.367279 
	C906.598022,305.817963 899.096558,298.613159 891.746094,291.265350 
	C886.127075,285.648315 880.628662,279.904022 874.860168,274.445038 
	C870.050293,269.893250 869.504883,270.103912 864.778992,274.704041 
	C841.088501,297.763763 817.272766,320.695740 793.695435,343.870361 
	C777.065308,360.216522 760.745544,376.878448 744.143616,393.699707 
	C744.000000,394.000000 743.997559,393.997559 743.698364,394.142609 
	C738.598633,399.191376 733.798096,404.095093 728.998779,408.999390 
	C729.000000,409.000000 728.997559,408.997742 728.698364,409.142761 
	C724.932007,412.858124 721.464783,416.428467 717.998779,419.999390 
	C718.000000,420.000000 717.997559,419.997742 717.698364,420.142700 
	C711.265259,426.524689 705.131409,432.761719 698.778625,439.106689 
	C698.286743,439.413849 698.100037,439.674835 697.700195,440.142517 
	C688.790466,448.837219 680.121521,457.329010 671.591248,465.957886 
	C666.263794,471.346985 661.255249,477.052063 655.909424,482.422119 
	C646.350220,492.024689 636.644348,501.481201 626.999878,510.999390 
	C627.000000,511.000000 627.000000,510.998779 626.700623,511.143433 
	C623.266663,514.525391 620.132141,517.762695 616.778809,521.107666 
	C616.287048,521.414307 616.100342,521.675049 615.700684,522.142639 
	C611.934265,525.858459 608.467163,529.429260 604.700562,533.144531 
	C600.934082,536.859436 597.467041,540.429749 593.700562,544.144592 
	C592.547791,545.079468 591.660950,545.836792 590.846069,546.664856 
	C574.316650,563.460938 557.884399,580.353882 541.242676,597.037842 
	C529.403809,608.906616 517.260132,620.470886 505.325745,632.245422 
	C503.971741,633.581299 503.092926,635.398804 501.996887,636.996460 
	C502.000000,637.000000 501.993408,636.993530 501.649384,637.028687 
	C499.894928,638.185059 498.364563,639.185486 497.093262,640.446960 
	C487.794891,649.673279 478.487091,658.891663 469.305359,668.233521 
	C462.103394,675.561157 455.145782,683.128906 447.949860,690.462585 
	C443.082764,695.422852 437.990356,700.161987 432.718170,705.130371 
	C431.624664,706.173035 430.811707,707.085327 429.699829,708.142456 
	C426.599792,711.191650 423.798676,714.095825 420.731354,717.119507 
	C419.976349,717.825195 419.487549,718.411377 418.699829,719.142456 
	C415.599792,722.191589 412.798676,725.095703 409.717041,728.130249 
	C408.623932,729.172974 407.811340,730.085266 406.699860,731.142456 
	C403.599854,734.191650 400.798706,737.095825 397.731354,740.119507 
	C396.976318,740.825195 396.487549,741.411377 395.699585,742.142700 
	C367.399750,770.225159 339.402863,798.166138 311.387665,826.088684 
	C309.985138,827.486572 308.424194,828.725464 306.728577,830.016724 
	C306.520142,829.994995 306.102814,829.956787 306.108765,829.561401 
	C311.820312,809.508362 310.721985,790.205017 303.004578,771.279785 
	C297.501617,757.785034 288.771362,746.625671 277.923401,737.031006 
M977.450867,186.792252 
	C969.467896,189.849731 962.839783,202.773056 967.986328,212.933105 
	C973.156372,223.139297 984.746033,227.651367 994.382019,223.276428 
	C1004.430481,218.714203 1009.100403,206.906860 1005.161194,197.197235 
	C1000.867310,186.613541 987.790955,181.094208 977.450867,186.792252 
M511.071014,432.572906 
	C516.197205,436.768372 522.033813,437.557159 528.264038,435.963715 
	C539.679138,433.044128 544.980225,423.206848 541.959229,410.736481 
	C539.843018,402.001495 528.084900,395.652771 518.485535,397.913422 
	C511.113831,399.649445 506.276245,404.391205 504.550293,411.359436 
	C502.644592,419.053284 503.394379,426.655121 511.071014,432.572906 
M622.624329,326.338745 
	C620.442078,320.325226 614.539246,316.298981 608.971130,317.026093 
	C603.070190,317.796661 597.867920,322.900421 597.046753,328.724518 
	C596.270935,334.227264 600.105042,340.002258 605.742371,342.376801 
	C612.701843,345.308289 625.443237,339.191864 622.624329,326.338745 
M570.505981,382.275177 
	C575.402161,380.203583 577.241577,376.232452 575.932861,370.559479 
	C575.135437,367.102783 570.564087,363.962219 566.384583,363.999725 
	C561.545288,364.043152 558.155457,366.986725 557.141663,372.025970 
	C556.273621,376.340698 558.636963,380.958954 562.969849,382.326538 
	C565.051941,382.983673 567.481689,382.539459 570.505981,382.275177 
M748.549255,194.230042 
	C748.225098,193.852798 747.937256,193.435333 747.571167,193.104446 
	C743.476685,189.403900 739.687256,189.090164 734.944702,192.039551 
	C731.314392,194.297256 729.783936,198.919495 731.340698,203.468399 
	C732.969727,208.228073 736.742188,209.224167 741.284424,209.031876 
	C748.458862,208.728195 751.700623,202.856750 748.549255,194.230042 
M694.944580,234.023987 
	C693.717651,234.492859 691.873962,234.613892 691.377197,235.494629 
	C689.761292,238.359436 687.574646,241.505066 687.583313,244.537003 
	C687.595154,248.703064 690.693848,252.054703 695.006897,252.722610 
	C698.724792,253.298325 702.238281,252.538284 704.914001,248.843567 
	C707.673889,245.032623 706.828186,241.749710 705.071350,238.219879 
	C703.138367,234.336151 699.625488,233.751846 694.944580,234.023987 
M651.068359,277.127960 
	C649.657349,277.978119 648.043640,278.613678 646.873413,279.718811 
	C643.401367,282.997772 643.009521,287.002106 645.112061,291.115448 
	C647.226807,295.252502 651.958801,297.089905 656.578308,295.917603 
	C660.057556,295.034668 663.135803,290.440277 662.998779,286.334839 
	C662.799377,280.360077 659.266479,277.409210 651.068359,277.127960 
M1035.617920,161.336792 
	C1035.410156,160.884476 1035.205200,160.430786 1034.994141,159.980026 
	C1032.880371,155.467224 1028.686157,153.941696 1024.675293,155.334534 
	C1021.704956,156.366013 1018.471497,159.457474 1017.383423,162.385056 
	C1015.992554,166.127289 1017.279907,170.684113 1021.747864,172.253586 
	C1024.575439,173.246857 1028.247437,173.729752 1030.947510,172.770935 
	C1035.574097,171.127930 1036.796509,166.864197 1035.617920,161.336792 
M952.525757,246.895111 
	C953.722351,242.206436 951.181519,239.198822 947.200500,238.505356 
	C945.233765,238.162766 941.961182,240.264877 940.686218,242.191696 
	C938.791260,245.055649 939.718628,248.617050 943.007385,250.186432 
	C946.449829,251.829163 950.125061,251.976349 952.525757,246.895111 
z"/>
<path fill="#50C0BD" opacity="1.000000" stroke="none" 
	d="
M277.608154,736.912476 
	C288.771362,746.625671 297.501617,757.785034 303.004578,771.279785 
	C310.721985,790.205017 311.820312,809.508362 305.826721,829.803894 
	C301.844727,843.452637 295.232056,854.890259 285.805573,864.454346 
	C277.904755,872.470520 269.318726,879.815552 260.941193,887.352295 
	C259.932953,888.259460 258.331909,888.507812 256.803284,888.759033 
	C245.531357,883.309814 234.127213,883.070007 223.446594,888.548706 
	C216.788940,891.963745 210.983429,897.253235 205.258469,902.233643 
	C187.855911,917.373413 170.662689,932.754150 153.420212,948.077393 
	C145.725922,954.915222 138.421234,962.231995 130.384918,968.635071 
	C117.575134,978.841370 112.025696,997.873657 118.082497,1013.401611 
	C110.149261,1020.842957 102.752167,1028.573486 94.311424,1034.914673 
	C75.388489,1049.130981 53.821815,1054.969238 30.393595,1050.896484 
	C20.382742,1049.156128 10.785283,1045.037842 0.999998,1042.000000 
	C1.000000,990.312439 1.000000,938.624878 1.306745,886.334351 
	C19.105286,870.238342 36.633106,854.785767 54.074722,839.236511 
	C63.838680,830.531921 73.459839,821.667114 83.434120,812.747742 
	C91.161873,806.050049 98.630997,799.512817 106.033134,792.900696 
	C119.345940,781.008911 132.618530,769.072083 145.907928,757.154114 
	C153.536118,750.480103 160.889969,743.457947 168.840591,737.193115 
	C200.830460,711.985962 242.833862,711.507568 275.632355,735.688232 
	C276.166992,736.082458 276.738617,736.426514 277.608154,736.912476 
z"/>
<path fill="#50C0BD" opacity="1.000000" stroke="none" 
	d="
M1877.201538,407.940918 
	C1856.602783,428.749054 1836.009399,449.562439 1815.401489,470.361420 
	C1810.607788,475.199493 1805.980713,480.231140 1800.904663,484.756012 
	C1783.222778,500.517792 1755.752686,500.085052 1738.745239,483.416992 
	C1709.871582,455.119507 1681.299683,426.514191 1652.560547,397.620300 
	C1664.549194,391.273865 1675.658569,383.994537 1685.194702,374.504669 
	C1716.410522,343.439850 1729.248169,306.055511 1721.773315,262.615509 
	C1719.578491,249.860123 1713.873901,237.708679 1709.961914,224.970490 
	C1713.753174,220.973007 1717.383423,217.307968 1720.962158,213.593216 
	C1728.388428,205.884781 1730.590210,194.358780 1725.409546,185.065720 
	C1722.738892,180.274887 1718.655151,176.146622 1714.723755,172.203491 
	C1680.874146,138.252167 1646.906372,104.418602 1613.015625,70.508095 
	C1611.784912,69.276604 1610.988281,67.611450 1609.989380,66.148407 
	C1631.265991,44.648224 1652.542603,23.148054 1673.909668,1.323942 
	C1734.687622,1.000000 1795.375122,1.000000 1856.403809,1.308212 
	C1838.819702,19.891432 1820.910522,38.182098 1802.961548,56.433437 
	C1796.079956,63.430969 1789.086670,70.318283 1782.181763,77.293022 
	C1771.671631,87.909378 1772.604004,105.392113 1783.362427,115.710655 
	C1800.513062,132.160019 1817.170776,149.123169 1833.888550,166.179825 
	C1832.715210,167.582657 1831.718628,168.702927 1830.661255,169.762589 
	C1805.827026,194.653992 1781.158691,219.714355 1756.072632,244.349518 
	C1743.864746,256.337921 1743.970947,274.119049 1755.819214,285.704590 
	C1795.492676,324.498810 1834.505371,363.969147 1873.732788,403.218933 
	C1875.097534,404.584503 1876.054443,406.357697 1877.201538,407.940918 
M1728.543579,32.763840 
	C1716.819214,27.289129 1705.789795,29.448851 1696.317139,39.074005 
	C1688.130005,47.393162 1686.345703,61.646801 1692.268677,71.411888 
	C1698.740601,82.081772 1711.808350,87.592209 1723.143311,84.431129 
	C1734.619751,81.230606 1742.886841,72.090981 1743.929443,60.902699 
	C1745.082520,48.529575 1739.768311,39.372738 1728.543579,32.763840 
z"/>
<path fill="#F7F7F7" opacity="1.000000" stroke="none" 
	d="
M0.999997,362.468658 
	C2.832107,360.666779 4.881259,359.550903 6.465030,357.969055 
	C67.517792,296.991455 128.500626,235.943878 189.566406,174.979355 
	C202.049942,162.516510 214.802002,150.321960 227.477692,138.052689 
	C230.897324,134.742691 234.281738,131.321716 238.120132,128.560242 
	C239.426620,127.620308 242.855743,127.712532 243.982925,128.762756 
	C249.905853,134.281311 255.351044,140.308563 261.062592,146.059372 
	C265.588531,150.616409 270.292236,154.996292 274.857758,159.514709 
	C281.099426,165.692017 287.286591,171.924423 293.493896,178.136444 
	C298.261444,182.907562 303.023804,187.683823 307.788757,192.457550 
	C313.260986,197.939819 318.923889,203.255859 324.002106,209.081589 
	C324.770447,209.963028 323.377472,213.697784 322.015991,215.279205 
	C318.375580,219.507751 314.207367,223.281723 310.251251,227.238678 
	C303.129333,234.362076 295.994171,241.472305 288.890564,248.613861 
	C227.837555,309.992950 166.794098,371.381531 105.737770,432.757324 
	C95.688141,442.859558 85.524712,452.849274 75.532677,463.007874 
	C66.269775,472.425140 57.263268,482.095490 47.957432,491.469360 
	C41.908348,497.562622 35.402260,503.201172 29.326826,509.269623 
	C23.368668,515.220947 17.775457,521.536316 11.867218,527.539551 
	C8.635148,530.823608 5.082558,533.792175 1.337251,536.951538 
	C1.000000,523.979126 1.000000,510.958221 1.388675,497.513489 
	C9.994567,499.459351 15.790762,494.773010 14.985678,486.410492 
	C14.386981,480.191681 8.434121,477.037476 1.000000,479.000000 
	C1.000000,440.312439 1.000000,401.624878 0.999997,362.468658 
M32.441319,454.767578 
	C42.877411,468.849426 58.739937,465.078979 65.107063,455.434692 
	C68.752060,449.913605 69.208359,439.396118 65.489464,434.140991 
	C60.265217,426.758667 51.358982,423.398804 43.744194,425.937622 
	C31.489239,430.023529 26.851635,441.204071 32.441319,454.767578 
M181.963181,221.422119 
	C183.414536,222.502548 184.753479,223.798508 186.337494,224.624542 
	C191.976547,227.565292 199.223206,225.699081 202.673523,220.570038 
	C206.923904,214.251602 205.704010,207.051300 199.540649,202.078903 
	C195.137054,198.526230 187.535324,199.107025 183.169205,203.329697 
	C177.810791,208.512054 177.384644,212.932114 181.963181,221.422119 
M141.470703,369.236084 
	C142.759521,368.212372 144.159042,367.299835 145.318069,366.145782 
	C150.425095,361.060547 150.258453,353.897644 144.986694,348.489014 
	C140.454987,343.839661 132.180908,343.611755 127.494781,348.007202 
	C122.470100,352.720184 121.456482,359.023773 124.825546,364.606689 
	C127.987076,369.845673 134.039062,371.730743 141.470703,369.236084 
M256.421570,230.847961 
	C258.372223,232.779312 260.046906,235.169403 262.332336,236.544189 
	C266.761414,239.208466 271.827423,238.066833 274.809082,234.338043 
	C278.019226,230.323502 277.727203,223.900284 274.144562,219.721741 
	C270.789795,215.808975 265.956512,215.135468 261.192688,217.916931 
	C255.795441,221.068253 254.208725,224.861313 256.421570,230.847961 
M243.594620,162.095169 
	C238.449020,157.155197 236.183228,156.341019 230.071915,160.391327 
	C227.227203,162.276672 224.254730,166.992920 224.668716,169.961807 
	C225.126587,173.245300 228.859131,177.029846 232.134018,178.723679 
	C236.354340,180.906540 241.607635,180.034470 244.446060,175.628693 
	C247.032990,171.613312 247.266937,166.903946 243.594620,162.095169 
M214.914551,264.589661 
	C211.833359,267.863800 212.147324,271.867615 213.994583,275.149811 
	C215.935623,278.598633 219.390610,281.645996 223.746597,280.721405 
	C227.725922,279.876801 231.339752,277.955109 232.305710,272.894470 
	C233.183167,268.297607 231.761719,265.200684 228.164124,262.753784 
	C223.603256,259.651703 219.425476,260.843201 214.914551,264.589661 
M110.761993,307.557343 
	C111.685638,306.407166 112.720703,305.328461 113.512947,304.093933 
	C116.392052,299.607513 115.042976,294.109039 110.440109,291.254181 
	C106.027611,288.517395 100.005058,289.715057 97.425751,294.002136 
	C94.990257,298.050171 94.978371,302.413788 97.830566,306.053345 
	C101.071320,310.188721 105.626892,309.626648 110.761993,307.557343 
M153.559647,264.198853 
	C158.493881,260.558167 159.594543,255.648697 156.540497,250.902924 
	C153.769531,246.597046 148.488983,244.984390 144.564316,247.245483 
	C139.285614,250.286667 137.504547,256.134308 140.272507,261.336395 
	C142.296585,265.140442 148.079712,266.620941 153.559647,264.198853 
M101.999466,400.617432 
	C102.173813,396.033844 99.084625,393.300781 95.522301,392.301849 
	C92.083870,391.337646 87.888069,391.040100 85.083672,394.813171 
	C82.304794,398.551910 82.053192,402.524567 84.315781,406.406036 
	C86.408981,409.996857 89.846420,411.954559 94.008186,410.759277 
	C98.502884,409.468262 102.284096,407.064178 101.999466,400.617432 
M170.714798,318.361725 
	C171.738083,319.640869 172.555450,321.194244 173.823990,322.146759 
	C177.375275,324.813446 181.277725,324.889343 184.896225,322.382782 
	C188.529587,319.865936 189.868927,315.922729 188.662689,311.881744 
	C187.510696,308.022461 185.052826,304.948242 180.158951,304.950836 
	C172.234360,304.955048 169.293243,308.623352 170.714798,318.361725 
z"/>
<path fill="#FEFEFE" opacity="1.000000" stroke="none" 
	d="
M1066.987549,70.995636 
	C1065.503174,72.316978 1063.948364,73.567810 1062.544800,74.970062 
	C1033.443237,104.045097 1004.414185,133.192871 975.249023,162.203903 
	C959.479004,177.890549 944.359924,194.407486 927.296021,208.558868 
	C914.814270,218.910202 904.652283,231.325394 892.642029,241.969315 
	C889.188110,245.030334 886.373596,248.810501 883.244690,252.241547 
	C881.154663,254.533356 879.052734,254.566193 876.824219,252.332901 
	C858.942810,234.413483 841.036011,216.519470 823.162292,198.592377 
	C822.616516,198.044983 822.347473,197.221786 822.106506,196.801300 
	C833.960266,185.147278 846.691406,174.598267 857.026367,162.072235 
	C880.694702,133.386154 908.910034,109.211746 934.117432,82.086365 
	C943.208984,72.302986 953.050476,63.219872 962.450562,53.718990 
	C979.121887,36.868923 995.719543,19.945913 1012.328674,3.034388 
	C1012.651550,2.705605 1012.736206,2.142793 1012.966064,1.344602 
	C1053.354248,1.000000 1093.708496,1.000000 1134.500732,1.345051 
	C1133.822144,3.096071 1132.828491,4.624349 1131.570068,5.889111 
	C1118.934937,18.587456 1106.228638,31.215057 1093.609985,43.929802 
	C1090.590576,46.972240 1087.936646,50.377834 1084.914307,53.417194 
	C1079.013428,59.351009 1072.971191,65.144226 1066.987549,70.995636 
M1047.230347,21.447603 
	C1046.409058,22.470377 1045.389893,23.390911 1044.800171,24.533218 
	C1041.893311,30.162739 1044.043091,35.952942 1049.837158,38.382748 
	C1054.512085,40.343212 1060.119507,37.623772 1062.274292,32.414970 
	C1063.786499,28.759378 1063.036255,25.599228 1060.326050,22.847921 
	C1056.656372,19.122818 1052.386841,19.333027 1047.230347,21.447603 
M1011.100342,63.023571 
	C1010.603088,63.015823 1010.104370,62.979298 1009.608826,63.004704 
	C1003.479004,63.319019 999.680786,67.357185 1000.002502,73.206886 
	C1000.316101,78.908287 1005.121887,82.574371 1011.517639,81.991219 
	C1016.877380,81.502533 1019.709412,77.475151 1018.973022,71.242188 
	C1018.467529,66.964272 1015.752502,64.522713 1011.100342,63.023571 
z"/>
<path fill="#FAFAFA" opacity="1.000000" stroke="none" 
	d="
M691.531372,0.999991 
	C693.098633,2.931866 693.838806,5.219486 695.349915,6.742025 
	C716.353638,27.904821 737.465210,48.960491 758.544739,70.048080 
	C763.328125,74.833183 763.139465,75.000206 758.540710,80.044861 
	C752.749512,86.397552 747.453735,93.203918 741.622803,99.517784 
	C737.159729,104.350525 732.141663,108.666405 727.480347,113.322189 
	C724.908752,115.890671 722.670044,118.792366 720.099731,121.362259 
	C697.956299,143.502151 675.771484,165.600601 653.299500,187.856018 
	C653.155762,181.308548 647.627625,178.123947 643.898682,174.106979 
	C635.569458,165.134354 626.674744,156.686646 618.006958,148.028519 
	C611.635498,141.664139 605.245911,135.317749 598.886658,128.941147 
	C587.210999,117.233696 575.572632,105.488899 563.871399,93.807091 
	C560.828613,90.769386 557.511536,88.004349 554.502930,84.935165 
	C551.812195,82.190292 551.450806,80.088768 554.917542,76.771996 
	C560.564209,71.369644 564.995972,64.717773 570.164673,58.788708 
	C574.082092,54.294945 578.327209,50.084900 582.463867,45.784565 
	C596.611145,31.077578 610.774902,16.386450 624.966187,1.344639 
	C647.020874,1.000000 669.041809,1.000000 691.531372,0.999991 
z"/>
<path fill="#B7B4FF" opacity="1.000000" stroke="none" 
	d="
M311.886230,924.067871 
	C312.285858,924.594299 312.629761,925.176453 313.092896,925.639282 
	C347.178192,959.699158 381.272949,993.749573 415.814331,1028.247192 
	C418.343170,1030.822144 420.412903,1032.962280 422.507874,1035.077393 
	C436.358093,1049.060669 450.213837,1063.038452 464.136963,1077.240356 
	C464.387299,1077.745605 464.645264,1077.900635 465.261536,1078.091064 
	C466.028656,1079.169556 466.514313,1080.084839 467.000000,1081.000000 
	C397.979095,1081.000000 328.958221,1081.000000 259.581177,1080.681396 
	C263.558899,1076.507935 267.866638,1072.623535 272.231598,1068.804321 
	C283.893402,1058.601074 290.179199,1045.923950 287.488220,1030.396484 
	C283.582642,1007.860901 267.362488,995.491699 243.810699,995.651367 
	C242.739319,989.873413 241.823273,984.474548 241.058594,978.767822 
	C248.861069,971.608398 256.166779,964.314941 264.241302,958.005432 
	C277.566864,947.592712 284.108429,926.710999 277.977356,911.625183 
	C281.373047,907.847961 284.709808,904.409729 288.330688,901.138855 
	C296.371948,908.893433 304.129089,916.480652 311.886230,924.067871 
z"/>
<path fill="#FAFAFA" opacity="1.000000" stroke="none" 
	d="
M464.067749,1077.018066 
	C450.213837,1063.038452 436.358093,1049.060669 422.507874,1035.077393 
	C420.412903,1032.962280 418.343170,1030.822144 416.111633,1028.404541 
	C417.432587,1026.451294 418.823608,1024.707397 420.386536,1023.134338 
	C447.612457,995.729919 474.894714,968.381348 502.073547,940.930359 
	C507.835388,935.110779 508.460907,934.895203 514.241394,940.755249 
	C535.977783,962.791016 557.659729,984.880493 579.432617,1006.880005 
	C583.130127,1010.616028 587.122437,1014.068115 591.078918,1017.536926 
	C593.359009,1019.535828 593.236450,1021.374146 591.310547,1023.470398 
	C589.968811,1024.930542 588.854858,1026.608276 587.458557,1028.008911 
	C571.468262,1044.050293 555.433350,1060.047241 539.446411,1076.091919 
	C538.182312,1077.360718 537.187866,1078.898193 536.034058,1080.655396 
	C513.312439,1081.000000 490.624878,1081.000000 467.468658,1081.000000 
	C466.514313,1080.084839 466.028656,1079.169556 465.161682,1077.892944 
	C464.597839,1077.284058 464.360321,1077.112915 464.067749,1077.018066 
z"/>
<path fill="#83F2EE" opacity="1.000000" stroke="none" 
	d="
M1834.036987,165.868988 
	C1817.170776,149.123169 1800.513062,132.160019 1783.362427,115.710655 
	C1772.604004,105.392113 1771.671631,87.909378 1782.181763,77.293022 
	C1789.086670,70.318283 1796.079956,63.430969 1802.961548,56.433437 
	C1820.910522,38.182098 1838.819702,19.891432 1856.872314,1.308212 
	C1859.370605,1.000000 1861.741089,1.000000 1864.698730,1.300304 
	C1882.428223,18.805822 1899.563232,36.018238 1916.735840,53.193161 
	C1917.518433,53.975918 1918.639282,54.420704 1919.602539,55.022896 
	C1919.717529,73.378746 1919.832520,91.734596 1919.585449,110.401657 
	C1909.168457,104.648140 1898.574219,103.637657 1889.487549,111.333633 
	C1878.473267,120.662331 1868.608887,131.355270 1858.317993,141.529633 
	C1850.168701,149.586578 1842.126587,157.751831 1834.036987,165.868988 
z"/>
<path fill="#8BF9F5" opacity="1.000000" stroke="none" 
	d="
M288.046570,900.971497 
	C284.709808,904.409729 281.373047,907.847961 277.641296,911.672485 
	C276.076660,912.957825 274.842896,913.785278 273.747345,914.767029 
	C263.620056,923.842651 253.569107,933.004089 243.395081,942.026794 
	C223.677414,959.513306 203.882339,976.912415 184.143021,994.374512 
	C172.223297,1004.919189 160.294739,1015.455139 148.486603,1026.123901 
	C145.113983,1029.171021 142.148346,1032.668579 138.649887,1036.003174 
	C137.481659,1036.580078 136.578491,1037.020996 135.849823,1037.660522 
	C125.005379,1047.178711 114.213821,1056.757202 103.345001,1066.247314 
	C97.628113,1071.239136 91.785728,1076.087158 86.000015,1081.000000 
	C57.766979,1081.000000 29.533957,1081.000000 1.000000,1081.000000 
	C1.000000,1068.313965 1.000000,1055.625610 0.999998,1042.468628 
	C10.785283,1045.037842 20.382742,1049.156128 30.393595,1050.896484 
	C53.821815,1054.969238 75.388489,1049.130981 94.311424,1034.914673 
	C102.752167,1028.573486 110.149261,1020.842957 118.414917,1013.348145 
	C127.361755,1005.644653 136.015793,998.451416 144.440048,990.998413 
	C155.245651,981.438538 165.817184,971.614563 176.579025,962.004578 
	C191.043076,949.088684 205.577667,936.251709 220.111603,923.414368 
	C227.810471,916.614258 235.698441,910.022766 243.259521,903.074219 
	C248.070755,898.652710 252.438843,893.749023 257.005676,889.061584 
	C258.331909,888.507812 259.932953,888.259460 260.941193,887.352295 
	C269.318726,879.815552 277.904755,872.470520 285.805573,864.454346 
	C295.232056,854.890259 301.844727,843.452637 305.820770,830.199280 
	C306.102814,829.956787 306.520142,829.994995 306.719513,830.344116 
	C306.959351,831.128357 306.999817,831.563538 307.012482,832.442871 
	C307.320282,838.261292 307.655914,843.635559 307.956848,849.422363 
	C305.599976,859.878357 303.277863,869.921814 300.693237,880.190369 
	C296.302673,887.267456 292.174622,894.119507 288.046570,900.971497 
z"/>
<path fill="#EEEEEE" opacity="1.000000" stroke="none" 
	d="
M1067.268799,71.249542 
	C1072.971191,65.144226 1079.013428,59.351009 1084.914307,53.417194 
	C1087.936646,50.377834 1090.590576,46.972240 1093.609985,43.929802 
	C1106.228638,31.215057 1118.934937,18.587456 1131.570068,5.889111 
	C1132.828491,4.624349 1133.822144,3.096071 1134.969360,1.345051 
	C1144.687622,1.000000 1154.375122,1.000000 1164.531250,1.441871 
	C1165.000244,3.046293 1164.968140,4.209904 1165.005981,5.371239 
	C1165.495605,20.402880 1182.975464,30.772804 1196.540405,24.260891 
	C1206.432739,19.512104 1210.510620,11.644665 1210.000000,1.000000 
	C1217.687622,1.000000 1225.375122,1.000000 1233.531372,0.999999 
	C1233.378174,2.124803 1232.975952,3.469329 1232.102783,4.342775 
	C1193.961548,42.492195 1155.778809,80.599991 1117.302979,118.860321 
	C1111.365479,117.429787 1108.952759,122.327805 1105.567139,124.969307 
	C1102.887695,127.059883 1101.095093,130.296997 1098.393433,132.345062 
	C1097.221558,133.233368 1094.002197,133.200211 1093.000366,132.240891 
	C1087.003906,126.499390 1081.531006,120.214531 1075.599365,114.400856 
	C1067.459106,106.422417 1059.066284,98.701485 1050.732178,90.823349 
	C1054.224976,88.324921 1057.958618,85.455154 1061.900391,82.907341 
	C1064.368408,81.312080 1067.965820,74.621536 1067.268799,71.249542 
M1086.200806,87.002823 
	C1085.193848,87.854378 1084.186890,88.705933 1083.179810,89.557442 
	C1085.783325,91.707390 1088.386719,93.857338 1091.262207,96.574821 
	C1092.178101,97.712997 1093.093872,98.851166 1094.072632,100.700089 
	C1095.381714,105.003960 1097.559204,107.221008 1102.910034,104.001328 
	C1104.072876,104.001862 1105.241943,103.923096 1106.397461,104.014938 
	C1121.401367,105.207451 1132.407837,88.502228 1124.432739,73.622307 
	C1120.212158,65.747627 1104.934570,60.205536 1095.881226,66.888321 
	C1088.798828,72.116203 1086.269897,78.664146 1086.200806,87.002823 
M1153.919067,36.559959 
	C1153.043823,36.083607 1152.192749,35.554920 1151.289429,35.139519 
	C1146.021362,32.716717 1140.656616,34.752918 1138.563721,39.944946 
	C1136.316528,45.519554 1138.669067,51.026066 1144.126221,52.907181 
	C1148.620605,54.456421 1152.230713,53.007996 1155.022583,49.404884 
	C1158.277588,45.204079 1157.343628,41.069901 1153.919067,36.559959 
z"/>
<path fill="#50C0BD" opacity="1.000000" stroke="none" 
	d="
M243.966034,996.030579 
	C267.362488,995.491699 283.582642,1007.860901 287.488220,1030.396484 
	C290.179199,1045.923950 283.893402,1058.601074 272.231598,1068.804321 
	C267.866638,1072.623535 263.558899,1076.507935 259.112549,1080.681396 
	C218.645767,1081.000000 178.291550,1081.000000 137.678986,1080.742676 
	C140.647720,1077.613770 143.889053,1074.758057 147.099487,1071.867798 
	C162.179626,1058.291626 177.251236,1044.705933 192.729706,1031.078003 
	C194.934814,1031.240601 196.736862,1031.442627 198.537338,1031.657959 
	C212.858078,1033.369995 224.972519,1029.555664 234.590454,1018.233276 
	C240.138290,1011.702148 241.786118,1003.824402 243.966034,996.030579 
z"/>
<path fill="#8BF9F5" opacity="1.000000" stroke="none" 
	d="
M92.993187,705.954468 
	C108.782089,710.543457 119.280693,720.389282 123.682083,737.287476 
	C124.993317,750.657288 123.419556,762.892273 114.093811,772.177002 
	C104.275322,781.952209 93.462364,790.728699 82.981949,799.583008 
	C80.543274,790.555359 76.845276,782.619873 69.653572,776.904602 
	C52.085068,762.942810 30.906628,763.862122 14.391471,779.078857 
	C9.997004,783.127808 5.467503,787.030273 0.999999,791.000000 
	C1.000000,782.645752 1.000000,774.291504 1.303524,765.327759 
	C15.062391,752.688782 28.506321,740.646362 41.978603,728.635803 
	C47.415455,723.788757 52.719200,718.764160 58.427967,714.256592 
	C68.598831,706.225647 80.224930,703.533325 92.993187,705.954468 
z"/>
<path fill="#B7B4FF" opacity="1.000000" stroke="none" 
	d="
M92.851036,705.658325 
	C80.224930,703.533325 68.598831,706.225647 58.427967,714.256592 
	C52.719200,718.764160 47.415455,723.788757 41.978603,728.635803 
	C28.506321,740.646362 15.062391,752.688782 1.303524,764.859131 
	C1.000000,714.979126 1.000000,664.958191 0.999999,614.468628 
	C1.544948,614.378845 2.162805,614.684937 2.624442,615.146973 
	C32.660652,645.210693 62.684204,675.286926 92.851036,705.658325 
z"/>
<path fill="#BC5CD6" opacity="1.000000" stroke="none" 
	d="
M0.999999,791.468628 
	C5.467503,787.030273 9.997004,783.127808 14.391471,779.078857 
	C30.906628,763.862122 52.085068,762.942810 69.653572,776.904602 
	C76.845276,782.619873 80.543274,790.555359 82.960976,800.050659 
	C83.076424,804.876038 83.110870,808.875244 83.145325,812.874512 
	C73.459839,821.667114 63.838680,830.531921 54.074722,839.236511 
	C36.633106,854.785767 19.105286,870.238342 1.306745,885.865662 
	C1.000000,854.645752 1.000000,823.291565 0.999999,791.468628 
z"/>
<path fill="#B7B4FF" opacity="1.000000" stroke="none" 
	d="
M192.325897,1031.123657 
	C177.251236,1044.705933 162.179626,1058.291626 147.099487,1071.867798 
	C143.889053,1074.758057 140.647720,1077.613770 137.210327,1080.742676 
	C120.312439,1081.000000 103.624878,1081.000000 86.468674,1081.000000 
	C91.785728,1076.087158 97.628113,1071.239136 103.345001,1066.247314 
	C114.213821,1056.757202 125.005379,1047.178711 135.849823,1037.660522 
	C136.578491,1037.020996 137.481659,1036.580078 138.859406,1036.298706 
	C147.264496,1040.698242 155.625824,1040.645874 164.083649,1039.437256 
	C173.211411,1038.132812 179.916885,1032.311035 187.077515,1027.217773 
	C188.976334,1028.694214 190.651108,1029.908936 192.325897,1031.123657 
z"/>
<path fill="#8BF9F5" opacity="1.000000" stroke="none" 
	d="
M1919.710693,54.562347 
	C1918.639282,54.420704 1917.518433,53.975918 1916.735840,53.193161 
	C1899.563232,36.018238 1882.428223,18.805822 1865.142944,1.300304 
	C1883.020874,1.000000 1901.041870,1.000000 1919.531372,1.000000 
	C1919.939697,18.700598 1919.879272,36.401196 1919.710693,54.562347 
z"/>
<path fill="#FFFFFF" opacity="1.000000" stroke="none" 
	d="
M601.468628,1081.000000 
	C599.666626,1075.995850 597.687195,1071.060791 597.144409,1065.972290 
	C596.222473,1057.328979 601.642334,1052.046753 608.786621,1048.747070 
	C616.148315,1045.346802 622.993347,1046.523804 629.524658,1051.856689 
	C637.624939,1058.470703 638.969299,1070.061401 632.037720,1080.641602 
	C621.979126,1081.000000 611.958191,1081.000000 601.468628,1081.000000 
z"/>
<path fill="#FFFFFF" opacity="1.000000" stroke="none" 
	d="
M1209.531372,1.000000 
	C1210.510620,11.644665 1206.432739,19.512104 1196.540405,24.260891 
	C1182.975464,30.772804 1165.495605,20.402880 1165.005981,5.371239 
	C1164.968140,4.209904 1165.000244,3.046293 1165.000000,1.441871 
	C1179.687622,1.000000 1194.375122,1.000000 1209.531372,1.000000 
z"/>
<path fill="#FFFFFF" opacity="1.000000" stroke="none" 
	d="
M1.000000,479.467957 
	C8.434121,477.037476 14.386981,480.191681 14.985678,486.410492 
	C15.790762,494.773010 9.994567,499.459351 1.388675,497.044861 
	C1.000000,491.311951 1.000000,485.623932 1.000000,479.467957 
z"/>
<path fill="#C342D0" opacity="1.000000" stroke="none" 
	d="
M1709.777710,225.280457 
	C1713.873901,237.708679 1719.578491,249.860123 1721.773315,262.615509 
	C1729.248169,306.055511 1716.410522,343.439850 1685.194702,374.504669 
	C1675.658569,383.994537 1664.549194,391.273865 1652.279053,397.417908 
	C1633.598389,405.522003 1614.510742,409.972534 1594.296875,409.029938 
	C1556.734375,407.278351 1525.914185,391.828613 1502.080444,362.978912 
	C1480.116455,336.392395 1471.781860,305.369659 1474.504883,270.411316 
	C1478.642822,238.514755 1492.163330,212.431030 1515.149292,191.051682 
	C1560.897827,148.500427 1635.806152,148.130157 1681.919556,190.285797 
	C1693.096924,200.503952 1702.108765,212.328644 1709.777710,225.280457 
z"/>
<path fill="#FFFFFF" opacity="1.000000" stroke="none" 
	d="
M288.330688,901.138855 
	C292.174622,894.119507 296.302673,887.267456 300.999817,880.342041 
	C302.544800,881.166809 303.479889,882.114624 304.503113,882.955261 
	C312.939575,889.885925 323.513855,889.509277 331.482635,882.016602 
	C338.682434,875.246948 339.644775,863.682251 333.692810,855.456299 
	C328.642334,848.476257 319.074219,846.076294 307.991516,849.009766 
	C307.655914,843.635559 307.320282,838.261292 307.364014,832.406006 
	C308.910828,831.315430 310.329041,830.951111 311.204620,830.056030 
	C316.397491,824.747681 321.339630,819.190430 326.606537,813.959045 
	C332.822266,807.785217 339.428284,802.002441 345.602234,795.788940 
	C354.978729,786.352417 364.086334,776.649414 373.389404,767.139099 
	C379.994110,760.387268 386.799103,753.830444 393.354370,747.031921 
	C394.617554,745.721863 395.136505,743.694214 395.998779,741.997559 
	C396.487549,741.411377 396.976318,740.825195 398.097565,740.115479 
	C403.043671,738.425537 406.188446,735.784607 406.998779,730.997559 
	C407.811340,730.085266 408.623932,729.172974 410.083252,728.126221 
	C415.043823,726.425659 418.188385,723.784546 418.998779,718.997559 
	C419.487549,718.411377 419.976349,717.825195 421.097565,717.115479 
	C426.043762,715.425598 429.188416,712.784607 429.998779,707.997559 
	C430.811707,707.085327 431.624664,706.173035 433.088928,705.125610 
	C435.854645,703.799072 438.213898,702.895081 440.027161,701.350220 
	C442.895416,698.906433 445.390564,696.026001 448.056580,693.343262 
	C453.889862,687.473389 459.776672,681.655945 465.556335,675.733765 
	C470.974396,670.182190 476.175354,664.415649 481.670227,658.942932 
	C486.927551,653.706726 492.557831,648.843201 497.775879,643.570251 
	C499.567505,641.759705 500.609131,639.207092 501.993408,636.993530 
	C501.993408,636.993530 502.000000,637.000000 502.346985,636.963867 
	C503.274475,636.626526 503.966400,636.441101 504.418365,636.006287 
	C508.810333,631.780579 513.185425,627.536682 517.519409,623.251526 
	C522.774170,618.055908 527.980225,612.811035 533.215332,607.595520 
	C539.409485,601.424561 545.589661,595.239258 551.817505,589.102417 
	C557.688416,583.317322 563.671814,577.645508 569.499146,571.817261 
	C576.025269,565.290222 582.551575,558.754639 588.823242,551.986816 
	C590.947754,549.694214 592.296692,546.682922 594.365356,543.995972 
	C599.579895,541.660278 603.650452,538.601196 605.365356,532.995972 
	C610.579712,530.658936 614.653076,527.601562 616.000000,521.997559 
	C616.100342,521.675049 616.287048,521.414307 617.147034,521.103394 
	C622.450439,519.169861 626.319580,516.562744 627.000000,510.998779 
	C627.000000,510.998779 627.000000,511.000000 627.366455,510.995667 
	C631.143799,508.495361 634.883545,506.339539 637.894348,503.429565 
	C643.453369,498.056854 648.433472,492.089081 653.928040,486.644989 
	C663.639282,477.022888 673.573669,467.626312 683.376404,458.095947 
	C687.153625,454.423645 691.016968,450.809387 694.463318,446.840607 
	C696.099304,444.956635 696.848572,442.302704 697.999573,439.997559 
	C698.100037,439.674835 698.286743,439.413849 699.144165,439.103088 
	C700.367371,438.856903 701.216492,438.939117 701.613220,438.554626 
	C706.832031,433.496429 712.033508,428.417664 717.103027,423.211334 
	C717.783569,422.512451 717.717712,421.086823 717.997559,419.997742 
	C717.997559,419.997742 718.000000,420.000000 718.364380,419.995789 
	C723.580017,417.661041 727.652710,414.603333 728.997559,408.997742 
	C728.997559,408.997742 729.000000,409.000000 729.364258,408.995789 
	C733.576233,405.795715 737.573608,402.757660 741.195312,399.323425 
	C742.573547,398.016541 743.088928,395.799683 743.997559,393.997559 
	C743.997559,393.997559 744.000000,394.000000 743.998779,393.999084 
	C746.515259,392.587616 749.089539,391.265625 751.517578,389.714722 
	C752.286865,389.223328 752.594910,388.060760 753.234558,387.307770 
	C758.925720,380.608002 759.831482,380.541260 766.004456,386.701782 
	C773.103699,393.786713 780.169556,400.905762 787.189575,408.069061 
	C792.370544,413.355804 797.333740,418.861603 802.633240,424.024109 
	C805.283447,426.605804 805.308228,428.393616 802.627441,430.965729 
	C795.735107,437.578705 789.014099,444.373688 782.328247,451.197449 
	C771.494324,462.254883 760.850220,473.500031 749.922729,484.463348 
	C741.433594,492.980347 732.571716,501.124512 723.990662,509.551605 
	C715.151672,518.231812 706.427490,527.029724 697.730713,535.852600 
	C696.877991,536.717651 696.569275,538.118896 696.004028,539.636841 
	C695.899414,540.324768 695.712708,540.585449 694.855347,540.896240 
	C689.661133,542.930115 686.067078,545.794250 685.000000,551.002441 
	C684.187805,551.914734 683.375610,552.827087 681.915894,553.873779 
	C677.298279,555.266296 674.493958,557.584106 674.000000,562.002441 
	C673.187805,562.914734 672.375671,563.827087 670.915894,564.873779 
	C666.298279,566.266296 663.493958,568.584106 663.000000,573.002441 
	C662.187805,573.914673 661.375610,574.826965 659.917358,575.873657 
	C654.419800,578.339111 650.347961,581.398376 649.000000,587.002441 
	C648.899536,587.324890 648.712830,587.585632 647.855347,587.896301 
	C642.661133,589.930115 639.067017,592.794250 638.000000,598.002441 
	C637.511597,598.588623 637.023193,599.174805 635.900085,599.884766 
	C631.712708,601.028198 629.159424,602.943054 629.000000,607.002441 
	C627.197998,608.906738 625.395996,610.811035 622.924255,612.862427 
	C620.836365,614.673889 619.418213,616.338196 618.000000,618.002441 
	C614.533630,621.571838 611.067322,625.141174 606.924622,628.860718 
	C605.165527,630.341431 604.082764,631.671936 603.000000,633.002441 
	C601.529297,634.574890 600.058594,636.147339 597.940796,637.864990 
	C596.529175,638.674255 595.764587,639.338379 595.000000,640.002441 
	C594.899536,640.324890 594.712830,640.585632 593.876343,640.945435 
	C592.875183,642.071716 592.437622,643.037109 592.000000,644.002441 
	C590.529358,645.574951 589.058716,647.147400 586.930664,648.864136 
	C585.182190,650.006409 584.091064,651.004395 583.000000,652.002441 
	C581.990784,653.510803 581.197205,655.234009 579.940308,656.495605 
	C556.844055,679.678894 533.692383,702.806946 510.552429,725.946655 
	C495.656708,740.842163 480.760956,755.737732 465.865356,770.633301 
	C433.559204,802.939758 401.253052,835.246277 368.946808,867.552673 
	C351.465027,885.034546 333.985565,902.518799 316.496582,919.993408 
	C315.202728,921.286194 313.839630,922.509644 312.197479,923.916626 
	C304.129089,916.480652 296.371948,908.893433 288.330688,901.138855 
M352.281006,818.459778 
	C351.544861,819.130981 350.674835,819.703491 350.094666,820.489807 
	C346.717072,825.067810 347.508240,831.544250 351.838470,835.322510 
	C355.000977,838.081726 360.685455,837.711975 363.966125,834.533630 
	C367.923370,830.699707 368.320618,825.024597 364.832397,820.723633 
	C361.604004,816.742920 357.303345,817.357727 352.281006,818.459778 
z"/>
<path fill="#8792DA" opacity="1.000000" stroke="none" 
	d="
M1833.888550,166.179810 
	C1842.126587,157.751831 1850.168701,149.586578 1858.317993,141.529633 
	C1868.608887,131.355270 1878.473267,120.662331 1889.487549,111.333633 
	C1898.574219,103.637657 1909.168457,104.648140 1919.527344,110.868500 
	C1919.879272,158.808334 1919.964966,206.592560 1919.964966,254.376770 
	C1919.964844,307.656097 1919.816650,360.935669 1919.967163,414.214447 
	C1919.980103,418.810760 1918.218872,420.708435 1914.304321,422.037811 
	C1903.567749,425.683807 1894.413330,423.051422 1886.313965,415.539001 
	C1883.542725,412.968567 1880.691406,410.484558 1877.539062,407.951019 
	C1876.054443,406.357697 1875.097534,404.584503 1873.732788,403.218933 
	C1834.505371,363.969147 1795.492676,324.498810 1755.819214,285.704590 
	C1743.970947,274.119049 1743.864746,256.337921 1756.072632,244.349518 
	C1781.158691,219.714355 1805.827026,194.653992 1830.661255,169.762589 
	C1831.718628,168.702927 1832.715210,167.582657 1833.888550,166.179810 
z"/>
<path fill="#8BF9F5" opacity="1.000000" stroke="none" 
	d="
M1709.961914,224.970490 
	C1702.108765,212.328644 1693.096924,200.503952 1681.919556,190.285797 
	C1635.806152,148.130157 1560.897827,148.500427 1515.149292,191.051682 
	C1492.163330,212.431030 1478.642822,238.514755 1474.472168,269.962891 
	C1455.000122,251.177216 1435.670776,232.109756 1416.581909,212.804672 
	C1414.369629,210.567307 1413.012329,207.154419 1412.080444,204.040573 
	C1408.828003,193.172577 1412.499390,184.154877 1420.219360,176.410706 
	C1447.156006,149.389816 1474.118408,122.394485 1501.006836,95.325798 
	C1516.966675,79.259056 1532.766479,63.033195 1548.712646,46.952759 
	C1561.433472,34.124901 1576.593994,34.272854 1589.549194,47.079266 
	C1596.040283,53.495754 1602.707642,59.733932 1609.642334,66.100594 
	C1610.988281,67.611450 1611.784912,69.276604 1613.015625,70.508095 
	C1646.906372,104.418602 1680.874146,138.252167 1714.723755,172.203491 
	C1718.655151,176.146622 1722.738892,180.274887 1725.409546,185.065720 
	C1730.590210,194.358780 1728.388428,205.884781 1720.962158,213.593216 
	C1717.383423,217.307968 1713.753174,220.973007 1709.961914,224.970490 
z"/>
<path fill="#F2F2F2" opacity="1.000000" stroke="none" 
	d="
M120.004227,105.886673 
	C119.686897,115.512505 112.727531,123.371010 103.551422,124.912491 
	C94.840614,126.375801 85.146233,120.685852 81.520409,111.981773 
	C77.953384,103.418854 80.949936,94.127708 88.467575,88.664101 
	C95.706635,83.402946 103.376305,83.508949 110.466293,87.571419 
	C116.871658,91.241608 120.952965,97.283485 120.004227,105.886673 
z"/>
<path fill="#F2F2F2" opacity="1.000000" stroke="none" 
	d="
M112.081635,637.859802 
	C105.561363,646.980286 98.644524,648.871521 88.834328,645.974670 
	C80.405334,643.485657 74.909180,634.301941 76.107147,625.730957 
	C77.366554,616.720398 86.610611,608.381409 94.758186,608.735352 
	C103.301559,609.106506 109.128914,612.656677 112.929543,619.622009 
	C116.113548,625.457214 115.962410,631.689453 112.081635,637.859802 
z"/>
<path fill="#B7B4FF" opacity="1.000000" stroke="none" 
	d="
M83.434120,812.747742 
	C83.110870,808.875244 83.076424,804.876038 83.062943,800.409180 
	C93.462364,790.728699 104.275322,781.952209 114.093811,772.177002 
	C123.419556,762.892273 124.993317,750.657288 123.931717,737.552979 
	C129.395905,742.351013 134.864471,747.626221 140.382629,752.848999 
	C141.928680,754.312256 143.620834,755.621094 145.576965,757.077454 
	C132.618530,769.072083 119.345940,781.008911 106.033134,792.900696 
	C98.630997,799.512817 91.161873,806.050049 83.434120,812.747742 
z"/>
<path fill="#F2F2F2" opacity="1.000000" stroke="none" 
	d="
M240.080261,490.190857 
	C245.028061,499.467987 240.244385,510.988647 229.474503,513.356873 
	C221.332794,515.147217 212.667908,510.404572 210.305023,502.439484 
	C207.737457,493.784393 212.494629,484.713806 220.946823,482.148682 
	C228.491913,479.858856 234.765625,482.402649 240.080261,490.190857 
z"/>
<path fill="#F2F2F2" opacity="1.000000" stroke="none" 
	d="
M284.940247,450.642731 
	C285.660126,457.923492 284.410767,464.030121 278.044708,467.955200 
	C269.977509,472.929108 259.703857,470.133240 254.884872,461.737396 
	C250.709244,454.462433 253.585983,444.953674 260.683136,440.579407 
	C270.112335,434.767792 279.734161,439.630035 283.504181,447.032349 
	C284.029877,448.064545 284.437195,449.157013 284.940247,450.642731 
z"/>
<path fill="#F2F2F2" opacity="1.000000" stroke="none" 
	d="
M387.851013,318.341187 
	C395.143250,309.049530 403.705597,308.508881 410.037781,316.587433 
	C412.623901,319.886780 412.884949,327.299652 410.537811,330.786041 
	C406.760559,336.396698 401.811432,338.046295 394.898987,335.998688 
	C390.534241,334.705811 387.021790,329.964203 387.036743,325.083771 
	C387.043274,322.956604 387.458649,320.830688 387.851013,318.341187 
z"/>
<path fill="#F2F2F2" opacity="1.000000" stroke="none" 
	d="
M434.262878,285.451172 
	C431.952087,279.078033 434.551392,272.732910 439.747528,271.242371 
	C445.579529,269.569489 451.207581,272.394379 452.032257,278.545654 
	C452.443329,281.611938 451.071136,286.535370 448.831451,287.929718 
	C446.026611,289.675964 441.487915,288.903259 437.727844,288.688354 
	C436.587341,288.623138 435.547150,286.803680 434.262878,285.451172 
z"/>
<path fill="#F2F2F2" opacity="1.000000" stroke="none" 
	d="
M130.623291,579.772949 
	C134.719269,574.831299 140.024368,573.552490 144.304611,576.179382 
	C147.779236,578.311829 149.662567,584.279785 148.020828,587.955505 
	C145.528900,593.534790 140.432892,595.665039 134.936050,593.425293 
	C130.048981,591.434021 128.084427,585.616455 130.623291,579.772949 
z"/>
<path fill="#F2F2F2" opacity="1.000000" stroke="none" 
	d="
M173.002197,540.180298 
	C174.160187,534.312378 178.714172,530.563293 183.347672,531.253967 
	C188.356094,532.000427 192.371506,537.178650 191.992783,542.402466 
	C191.656494,547.040894 187.369461,550.931885 182.540527,550.981445 
	C176.907135,551.039307 173.292252,547.102173 173.002197,540.180298 
z"/>
<path fill="#F2F2F2" opacity="1.000000" stroke="none" 
	d="
M365.135803,369.993958 
	C362.358856,376.697754 357.338348,378.874969 352.031281,376.009308 
	C346.371429,372.953064 344.741241,366.991791 348.133026,361.754150 
	C350.522766,358.063904 355.662781,356.727203 360.167786,358.624451 
	C364.554504,360.471924 366.401703,364.478943 365.135803,369.993958 
z"/>
<path fill="#F2F2F2" opacity="1.000000" stroke="none" 
	d="
M478.694550,243.082687 
	C476.001312,237.238159 476.621521,232.185242 480.068512,229.569733 
	C483.809021,226.731506 488.651398,226.684448 491.948120,229.454178 
	C496.412903,233.205246 497.417450,239.258209 494.224304,243.169540 
	C490.198914,248.100281 484.286438,248.186340 478.694550,243.082687 
z"/>
<path fill="#F2F2F2" opacity="1.000000" stroke="none" 
	d="
M321.123413,406.286926 
	C323.445251,415.658997 320.443268,419.896027 312.234314,420.073273 
	C307.323059,420.179321 304.809235,417.310638 303.428375,413.463226 
	C301.965820,409.388031 303.035278,405.351959 306.809235,402.911835 
	C310.470062,400.544861 314.553864,399.843414 318.346405,402.950500 
	C319.352753,403.774933 320.094177,404.922760 321.123413,406.286926 
z"/>
<path fill="#F2F2F2" opacity="1.000000" stroke="none" 
	d="
M149.394806,68.898636 
	C143.359970,75.302109 138.058838,75.938377 133.629959,71.134964 
	C130.421310,67.654961 130.036819,63.760609 132.206604,59.723621 
	C134.332794,55.767735 139.119232,53.824726 143.288803,55.309479 
	C147.542007,56.824020 150.150482,59.834747 149.987015,64.647469 
	C149.942566,65.956345 149.744400,67.260010 149.394806,68.898636 
z"/>
<path fill="#FFFFFF" opacity="1.000000" stroke="none" 
	d="
M718.724487,993.378296 
	C713.038574,1007.869995 700.027100,1011.554382 689.151428,1007.874878 
	C677.486023,1003.928345 671.103516,989.290527 675.919922,978.175415 
	C681.394836,965.540710 695.487183,960.565063 707.399292,966.623718 
	C715.348083,970.666504 722.181763,980.541626 718.724487,993.378296 
z"/>
<path fill="#FFFFFF" opacity="1.000000" stroke="none" 
	d="
M837.173889,861.043640 
	C839.866089,872.195251 833.484741,882.783813 822.703186,885.605896 
	C812.361938,888.312683 800.789795,881.658264 798.047668,871.427979 
	C795.207642,860.832458 801.274475,849.466614 811.733093,846.706787 
	C822.661743,843.822937 832.932190,848.179382 837.173889,861.043640 
z"/>
<path fill="#FEFEFE" opacity="1.000000" stroke="none" 
	d="
M857.262817,835.983276 
	C847.296692,832.559509 845.088867,824.216003 851.658447,817.685852 
	C855.134583,814.230774 858.931213,815.046997 862.185974,816.453064 
	C866.034424,818.115417 868.608459,821.362671 868.098877,826.380981 
	C867.688293,830.425415 866.303711,833.443420 862.484863,834.955872 
	C860.976318,835.553223 859.274536,835.662659 857.262817,835.983276 
z"/>
<path fill="#FEFEFE" opacity="1.000000" stroke="none" 
	d="
M662.082153,1018.713013 
	C667.020142,1022.279602 666.855286,1026.854492 665.166504,1031.424561 
	C663.570618,1035.743164 659.663757,1036.190796 655.619507,1036.014404 
	C650.604492,1035.795654 646.404663,1030.915649 647.027649,1025.915527 
	C647.641235,1020.991455 653.524780,1016.265686 658.014404,1017.181396 
	C659.300842,1017.443848 660.520081,1018.035828 662.082153,1018.713013 
z"/>
<path fill="#FEFEFE" opacity="1.000000" stroke="none" 
	d="
M771.625366,903.807617 
	C773.739502,899.346313 777.336670,898.766052 780.395508,901.015686 
	C782.277771,902.400085 784.148926,906.616882 783.342773,908.167358 
	C782.185120,910.393982 778.269165,912.919739 776.095703,912.486145 
	C772.677307,911.804138 769.838928,908.706177 771.625366,903.807617 
z"/>
<path fill="#FEFEFE" opacity="1.000000" stroke="none" 
	d="
M739.882690,945.289429 
	C739.059631,947.006165 738.166626,948.341553 737.273560,949.676880 
	C736.286133,948.911011 734.821899,948.322327 734.452209,947.326965 
	C734.117126,946.425049 734.900513,944.134155 735.320740,944.100952 
	C736.787659,943.985107 738.310913,944.582031 739.882690,945.289429 
z"/>
<path fill="#FEFEFE" opacity="1.000000" stroke="none" 
	d="
M649.299438,586.857422 
	C650.347961,581.398376 654.419800,578.339111 659.636841,576.004028 
	C656.534607,579.570862 653.066711,583.141663 649.299438,586.857422 
z"/>
<path fill="#FEFEFE" opacity="1.000000" stroke="none" 
	d="
M638.299316,597.857483 
	C639.067017,592.794250 642.661133,589.930115 647.636597,588.004028 
	C644.867859,591.237488 641.733276,594.475037 638.299316,597.857483 
z"/>
<path fill="#FEFEFE" opacity="1.000000" stroke="none" 
	d="
M685.299316,550.857483 
	C686.067078,545.794250 689.661133,542.930115 694.636597,541.004028 
	C691.867859,544.237488 688.733276,547.475037 685.299316,550.857483 
z"/>
<path fill="#FEFEFE" opacity="1.000000" stroke="none" 
	d="
M663.298706,572.857971 
	C663.493958,568.584106 666.298279,566.266296 670.635376,565.004150 
	C668.534058,567.571167 666.065674,570.142334 663.298706,572.857971 
z"/>
<path fill="#FEFEFE" opacity="1.000000" stroke="none" 
	d="
M674.298706,561.857971 
	C674.493958,557.584106 677.298279,555.266296 681.635376,554.004150 
	C679.534119,556.571167 677.065735,559.142334 674.298706,561.857971 
z"/>
<path fill="#FEFEFE" opacity="1.000000" stroke="none" 
	d="
M629.299561,606.856384 
	C629.159424,602.943054 631.712708,601.028198 635.633911,600.004272 
	C633.868042,602.236755 631.733582,604.473572 629.299561,606.856384 
z"/>
<path fill="#FEFEFE" opacity="1.000000" stroke="none" 
	d="
M618.292969,617.861938 
	C619.418213,616.338196 620.836365,614.673889 622.628540,613.004761 
	C621.530212,614.573792 620.058044,616.147644 618.292969,617.861938 
z"/>
<path fill="#FEFEFE" opacity="1.000000" stroke="none" 
	d="
M603.288147,632.865356 
	C604.082764,631.671936 605.165527,630.341431 606.625366,629.005371 
	C605.860352,630.242737 604.718323,631.485535 603.288147,632.865356 
z"/>
<path fill="#FEFEFE" opacity="1.000000" stroke="none" 
	d="
M583.329468,651.972656 
	C584.091064,651.004395 585.182190,650.006409 586.637817,649.004150 
	C585.887939,649.980957 584.773438,650.961914 583.329468,651.972656 
z"/>
<path fill="#FEFEFE" opacity="1.000000" stroke="none" 
	d="
M595.321289,639.975830 
	C595.764587,639.338379 596.529175,638.674255 597.648071,638.005127 
	C597.215820,638.649719 596.429199,639.299438 595.321289,639.975830 
z"/>
<path fill="#FEFEFE" opacity="1.000000" stroke="none" 
	d="
M592.289001,643.860718 
	C592.437622,643.037109 592.875183,642.071716 593.657593,641.053223 
	C593.527588,641.906311 593.052795,642.812683 592.289001,643.860718 
z"/>
<path fill="#FFFFFF" opacity="1.000000" stroke="none" 
	d="
M977.789551,186.611954 
	C987.790955,181.094208 1000.867310,186.613541 1005.161194,197.197235 
	C1009.100403,206.906860 1004.430481,218.714203 994.382019,223.276428 
	C984.746033,227.651367 973.156372,223.139297 967.986328,212.933105 
	C962.839783,202.773056 969.467896,189.849731 977.789551,186.611954 
z"/>
<path fill="#FEFEFE" opacity="1.000000" stroke="none" 
	d="
M510.809174,432.311462 
	C503.394379,426.655121 502.644592,419.053284 504.550293,411.359436 
	C506.276245,404.391205 511.113831,399.649445 518.485535,397.913422 
	C528.084900,395.652771 539.843018,402.001495 541.959229,410.736481 
	C544.980225,423.206848 539.679138,433.044128 528.264038,435.963715 
	C522.033813,437.557159 516.197205,436.768372 510.809174,432.311462 
z"/>
<path fill="#FFFFFF" opacity="1.000000" stroke="none" 
	d="
M622.751221,326.730957 
	C625.443237,339.191864 612.701843,345.308289 605.742371,342.376801 
	C600.105042,340.002258 596.270935,334.227264 597.046753,328.724518 
	C597.867920,322.900421 603.070190,317.796661 608.971130,317.026093 
	C614.539246,316.298981 620.442078,320.325226 622.751221,326.730957 
z"/>
<path fill="#FEFEFE" opacity="1.000000" stroke="none" 
	d="
M593.700562,544.144592 
	C592.296692,546.682922 590.947754,549.694214 588.823242,551.986816 
	C582.551575,558.754639 576.025269,565.290222 569.499146,571.817261 
	C563.671814,577.645508 557.688416,583.317322 551.817505,589.102417 
	C545.589661,595.239258 539.409485,601.424561 533.215332,607.595520 
	C527.980225,612.811035 522.774170,618.055908 517.519409,623.251526 
	C513.185425,627.536682 508.810333,631.780579 504.418365,636.006287 
	C503.966400,636.441101 503.274475,636.626526 502.343842,636.960327 
	C503.092926,635.398804 503.971741,633.581299 505.325745,632.245422 
	C517.260132,620.470886 529.403809,608.906616 541.242676,597.037842 
	C557.884399,580.353882 574.316650,563.460938 590.846069,546.664856 
	C591.660950,545.836792 592.547791,545.079468 593.700562,544.144592 
z"/>
<path fill="#FEFEFE" opacity="1.000000" stroke="none" 
	d="
M570.130005,382.434570 
	C567.481689,382.539459 565.051941,382.983673 562.969849,382.326538 
	C558.636963,380.958954 556.273621,376.340698 557.141663,372.025970 
	C558.155457,366.986725 561.545288,364.043152 566.384583,363.999725 
	C570.564087,363.962219 575.135437,367.102783 575.932861,370.559479 
	C577.241577,376.232452 575.402161,380.203583 570.130005,382.434570 
z"/>
<path fill="#FEFEFE" opacity="1.000000" stroke="none" 
	d="
M748.749329,194.572525 
	C751.700623,202.856750 748.458862,208.728195 741.284424,209.031876 
	C736.742188,209.224167 732.969727,208.228073 731.340698,203.468399 
	C729.783936,198.919495 731.314392,194.297256 734.944702,192.039551 
	C739.687256,189.090164 743.476685,189.403900 747.571167,193.104446 
	C747.937256,193.435333 748.225098,193.852798 748.749329,194.572525 
z"/>
<path fill="#FFFFFF" opacity="1.000000" stroke="none" 
	d="
M695.359070,234.013275 
	C699.625488,233.751846 703.138367,234.336151 705.071350,238.219879 
	C706.828186,241.749710 707.673889,245.032623 704.914001,248.843567 
	C702.238281,252.538284 698.724792,253.298325 695.006897,252.722610 
	C690.693848,252.054703 687.595154,248.703064 687.583313,244.537003 
	C687.574646,241.505066 689.761292,238.359436 691.377197,235.494629 
	C691.873962,234.613892 693.717651,234.492859 695.359070,234.013275 
z"/>
<path fill="#FFFFFF" opacity="1.000000" stroke="none" 
	d="
M651.462891,277.078461 
	C659.266479,277.409210 662.799377,280.360077 662.998779,286.334839 
	C663.135803,290.440277 660.057556,295.034668 656.578308,295.917603 
	C651.958801,297.089905 647.226807,295.252502 645.112061,291.115448 
	C643.009521,287.002106 643.401367,282.997772 646.873413,279.718811 
	C648.043640,278.613678 649.657349,277.978119 651.462891,277.078461 
z"/>
<path fill="#FFFFFF" opacity="1.000000" stroke="none" 
	d="
M1035.746826,161.721542 
	C1036.796509,166.864197 1035.574097,171.127930 1030.947510,172.770935 
	C1028.247437,173.729752 1024.575439,173.246857 1021.747864,172.253586 
	C1017.279907,170.684113 1015.992554,166.127289 1017.383423,162.385056 
	C1018.471497,159.457474 1021.704956,156.366013 1024.675293,155.334534 
	C1028.686157,153.941696 1032.880371,155.467224 1034.994141,159.980026 
	C1035.205200,160.430786 1035.410156,160.884476 1035.746826,161.721542 
z"/>
<path fill="#FEFEFE" opacity="1.000000" stroke="none" 
	d="
M395.699554,742.142700 
	C395.136505,743.694214 394.617554,745.721863 393.354370,747.031921 
	C386.799103,753.830444 379.994110,760.387268 373.389404,767.139099 
	C364.086334,776.649414 354.978729,786.352417 345.602234,795.788940 
	C339.428284,802.002441 332.822266,807.785217 326.606537,813.959045 
	C321.339630,819.190430 316.397491,824.747681 311.204620,830.056030 
	C310.329041,830.951111 308.910828,831.315430 307.391785,831.961853 
	C306.999817,831.563538 306.959351,831.128357 306.927948,830.365784 
	C308.424194,828.725464 309.985138,827.486572 311.387665,826.088684 
	C339.402863,798.166138 367.399750,770.225159 395.699554,742.142700 
z"/>
<path fill="#FEFEFE" opacity="1.000000" stroke="none" 
	d="
M501.649353,637.028687 
	C500.609131,639.207092 499.567505,641.759705 497.775879,643.570251 
	C492.557831,648.843201 486.927551,653.706726 481.670227,658.942932 
	C476.175354,664.415649 470.974396,670.182190 465.556335,675.733765 
	C459.776672,681.655945 453.889862,687.473389 448.056580,693.343262 
	C445.390564,696.026001 442.895416,698.906433 440.027161,701.350220 
	C438.213898,702.895081 435.854645,703.799072 433.369507,704.995239 
	C437.990356,700.161987 443.082764,695.422852 447.949860,690.462585 
	C455.145782,683.128906 462.103394,675.561157 469.305359,668.233521 
	C478.487091,658.891663 487.794891,649.673279 497.093262,640.446960 
	C498.364563,639.185486 499.894928,638.185059 501.649353,637.028687 
z"/>
<path fill="#FEFEFE" opacity="1.000000" stroke="none" 
	d="
M697.700195,440.142517 
	C696.848572,442.302704 696.099304,444.956635 694.463318,446.840607 
	C691.016968,450.809387 687.153625,454.423645 683.376404,458.095947 
	C673.573669,467.626312 663.639282,477.022888 653.928040,486.644989 
	C648.433472,492.089081 643.453369,498.056854 637.894348,503.429565 
	C634.883545,506.339539 631.143799,508.495361 627.366333,510.995087 
	C636.644348,501.481201 646.350220,492.024689 655.909424,482.422119 
	C661.255249,477.052063 666.263794,471.346985 671.591248,465.957886 
	C680.121521,457.329010 688.790466,448.837219 697.700195,440.142517 
z"/>
<path fill="#FEFEFE" opacity="1.000000" stroke="none" 
	d="
M952.351807,247.243271 
	C950.125061,251.976349 946.449829,251.829163 943.007385,250.186432 
	C939.718628,248.617050 938.791260,245.055649 940.686218,242.191696 
	C941.961182,240.264877 945.233765,238.162766 947.200500,238.505356 
	C951.181519,239.198822 953.722351,242.206436 952.351807,247.243271 
z"/>
<path fill="#FEFEFE" opacity="1.000000" stroke="none" 
	d="
M717.698364,420.142700 
	C717.717712,421.086823 717.783569,422.512451 717.103027,423.211334 
	C712.033508,428.417664 706.832031,433.496429 701.613220,438.554626 
	C701.216492,438.939117 700.367371,438.856903 699.363037,438.995178 
	C705.131409,432.761719 711.265259,426.524689 717.698364,420.142700 
z"/>
<path fill="#FEFEFE" opacity="1.000000" stroke="none" 
	d="
M743.698364,394.142609 
	C743.088928,395.799683 742.573547,398.016541 741.195312,399.323425 
	C737.573608,402.757660 733.576233,405.795715 729.363037,408.995209 
	C733.798096,404.095093 738.598633,399.191376 743.698364,394.142609 
z"/>
<path fill="#FEFEFE" opacity="1.000000" stroke="none" 
	d="
M728.698364,409.142761 
	C727.652710,414.603333 723.580017,417.661041 718.363159,419.995178 
	C721.464783,416.428467 724.932007,412.858124 728.698364,409.142761 
z"/>
<path fill="#FEFEFE" opacity="1.000000" stroke="none" 
	d="
M615.700684,522.142639 
	C614.653076,527.601562 610.579712,530.658936 605.365356,532.995972 
	C608.467163,529.429260 611.934265,525.858459 615.700684,522.142639 
z"/>
<path fill="#FEFEFE" opacity="1.000000" stroke="none" 
	d="
M604.700562,533.144531 
	C603.650452,538.601196 599.579895,541.660278 594.365356,543.995972 
	C597.467041,540.429749 600.934082,536.859436 604.700562,533.144531 
z"/>
<path fill="#FEFEFE" opacity="1.000000" stroke="none" 
	d="
M626.700623,511.143433 
	C626.319580,516.562744 622.450439,519.169861 617.365845,520.995728 
	C620.132141,517.762695 623.266663,514.525391 626.700623,511.143433 
z"/>
<path fill="#FEFEFE" opacity="1.000000" stroke="none" 
	d="
M406.699890,731.142456 
	C406.188446,735.784607 403.043671,738.425537 398.363800,739.995972 
	C400.798706,737.095825 403.599854,734.191650 406.699890,731.142456 
z"/>
<path fill="#FEFEFE" opacity="1.000000" stroke="none" 
	d="
M429.699829,708.142456 
	C429.188416,712.784607 426.043762,715.425598 421.363800,716.995972 
	C423.798676,714.095825 426.599792,711.191650 429.699829,708.142456 
z"/>
<path fill="#FEFEFE" opacity="1.000000" stroke="none" 
	d="
M418.699829,719.142456 
	C418.188385,723.784546 415.043823,726.425659 410.363770,727.995850 
	C412.798676,725.095703 415.599792,722.191589 418.699829,719.142456 
z"/>
<path fill="#75E3E0" opacity="1.000000" stroke="none" 
	d="
M256.803284,888.759033 
	C252.438843,893.749023 248.070755,898.652710 243.259521,903.074219 
	C235.698441,910.022766 227.810471,916.614258 220.111603,923.414368 
	C205.577667,936.251709 191.043076,949.088684 176.579025,962.004578 
	C165.817184,971.614563 155.245651,981.438538 144.440048,990.998413 
	C136.015793,998.451416 127.361755,1005.644653 118.477402,1013.006836 
	C112.025696,997.873657 117.575134,978.841370 130.384918,968.635071 
	C138.421234,962.231995 145.725922,954.915222 153.420212,948.077393 
	C170.662689,932.754150 187.855911,917.373413 205.258469,902.233643 
	C210.983429,897.253235 216.788940,891.963745 223.446594,888.548706 
	C234.127213,883.070007 245.531357,883.309814 256.803284,888.759033 
z"/>
<path fill="#8792DA" opacity="1.000000" stroke="none" 
	d="
M1728.888184,32.917755 
	C1739.768311,39.372738 1745.082520,48.529575 1743.929443,60.902699 
	C1742.886841,72.090981 1734.619751,81.230606 1723.143311,84.431129 
	C1711.808350,87.592209 1698.740601,82.081772 1692.268677,71.411888 
	C1686.345703,61.646801 1688.130005,47.393162 1696.317139,39.074005 
	C1705.789795,29.448851 1716.819214,27.289129 1728.888184,32.917755 
z"/>
<path fill="#FFFFFF" opacity="1.000000" stroke="none" 
	d="
M32.249924,454.438782 
	C26.851635,441.204071 31.489239,430.023529 43.744194,425.937622 
	C51.358982,423.398804 60.265217,426.758667 65.489464,434.140991 
	C69.208359,439.396118 68.752060,449.913605 65.107063,455.434692 
	C58.739937,465.078979 42.877411,468.849426 32.249924,454.438782 
z"/>
<path fill="#FEFEFE" opacity="1.000000" stroke="none" 
	d="
M181.722626,221.125671 
	C177.384644,212.932114 177.810791,208.512054 183.169205,203.329697 
	C187.535324,199.107025 195.137054,198.526230 199.540649,202.078903 
	C205.704010,207.051300 206.923904,214.251602 202.673523,220.570038 
	C199.223206,225.699081 191.976547,227.565292 186.337494,224.624542 
	C184.753479,223.798508 183.414536,222.502548 181.722626,221.125671 
z"/>
<path fill="#FFFFFF" opacity="1.000000" stroke="none" 
	d="
M141.130463,369.407745 
	C134.039062,371.730743 127.987076,369.845673 124.825546,364.606689 
	C121.456482,359.023773 122.470100,352.720184 127.494781,348.007202 
	C132.180908,343.611755 140.454987,343.839661 144.986694,348.489014 
	C150.258453,353.897644 150.425095,361.060547 145.318069,366.145782 
	C144.159042,367.299835 142.759521,368.212372 141.130463,369.407745 
z"/>
<path fill="#FEFEFE" opacity="1.000000" stroke="none" 
	d="
M256.245789,230.505341 
	C254.208725,224.861313 255.795441,221.068253 261.192688,217.916931 
	C265.956512,215.135468 270.789795,215.808975 274.144562,219.721741 
	C277.727203,223.900284 278.019226,230.323502 274.809082,234.338043 
	C271.827423,238.066833 266.761414,239.208466 262.332336,236.544189 
	C260.046906,235.169403 258.372223,232.779312 256.245789,230.505341 
z"/>
<path fill="#FEFEFE" opacity="1.000000" stroke="none" 
	d="
M243.868866,162.371475 
	C247.266937,166.903946 247.032990,171.613312 244.446060,175.628693 
	C241.607635,180.034470 236.354340,180.906540 232.134018,178.723679 
	C228.859131,177.029846 225.126587,173.245300 224.668716,169.961807 
	C224.254730,166.992920 227.227203,162.276672 230.071915,160.391327 
	C236.183228,156.341019 238.449020,157.155197 243.868866,162.371475 
z"/>
<path fill="#FEFEFE" opacity="1.000000" stroke="none" 
	d="
M215.193268,264.309937 
	C219.425476,260.843201 223.603256,259.651703 228.164124,262.753784 
	C231.761719,265.200684 233.183167,268.297607 232.305710,272.894470 
	C231.339752,277.955109 227.725922,279.876801 223.746597,280.721405 
	C219.390610,281.645996 215.935623,278.598633 213.994583,275.149811 
	C212.147324,271.867615 211.833359,267.863800 215.193268,264.309937 
z"/>
<path fill="#FEFEFE" opacity="1.000000" stroke="none" 
	d="
M110.420219,307.756653 
	C105.626892,309.626648 101.071320,310.188721 97.830566,306.053345 
	C94.978371,302.413788 94.990257,298.050171 97.425751,294.002136 
	C100.005058,289.715057 106.027611,288.517395 110.440109,291.254181 
	C115.042976,294.109039 116.392052,299.607513 113.512947,304.093933 
	C112.720703,305.328461 111.685638,306.407166 110.420219,307.756653 
z"/>
<path fill="#FEFEFE" opacity="1.000000" stroke="none" 
	d="
M153.219635,264.381348 
	C148.079712,266.620941 142.296585,265.140442 140.272507,261.336395 
	C137.504547,256.134308 139.285614,250.286667 144.564316,247.245483 
	C148.488983,244.984390 153.769531,246.597046 156.540497,250.902924 
	C159.594543,255.648697 158.493881,260.558167 153.219635,264.381348 
z"/>
<path fill="#FEFEFE" opacity="1.000000" stroke="none" 
	d="
M101.999405,401.027985 
	C102.284096,407.064178 98.502884,409.468262 94.008186,410.759277 
	C89.846420,411.954559 86.408981,409.996857 84.315781,406.406036 
	C82.053192,402.524567 82.304794,398.551910 85.083672,394.813171 
	C87.888069,391.040100 92.083870,391.337646 95.522301,392.301849 
	C99.084625,393.300781 102.173813,396.033844 101.999405,401.027985 
z"/>
<path fill="#FEFEFE" opacity="1.000000" stroke="none" 
	d="
M170.542511,318.002167 
	C169.293243,308.623352 172.234360,304.955048 180.158951,304.950836 
	C185.052826,304.948242 187.510696,308.022461 188.662689,311.881744 
	C189.868927,315.922729 188.529587,319.865936 184.896225,322.382782 
	C181.277725,324.889343 177.375275,324.813446 173.823990,322.146759 
	C172.555450,321.194244 171.738083,319.640869 170.542511,318.002167 
z"/>
<path fill="#F2F2F2" opacity="1.000000" stroke="none" 
	d="
M1047.571777,21.248009 
	C1052.386841,19.333027 1056.656372,19.122818 1060.326050,22.847921 
	C1063.036255,25.599228 1063.786499,28.759378 1062.274292,32.414970 
	C1060.119507,37.623772 1054.512085,40.343212 1049.837158,38.382748 
	C1044.043091,35.952942 1041.893311,30.162739 1044.800171,24.533218 
	C1045.389893,23.390911 1046.409058,22.470377 1047.571777,21.248009 
z"/>
<path fill="#F2F2F2" opacity="1.000000" stroke="none" 
	d="
M1011.498718,63.070435 
	C1015.752502,64.522713 1018.467529,66.964272 1018.973022,71.242188 
	C1019.709412,77.475151 1016.877380,81.502533 1011.517639,81.991219 
	C1005.121887,82.574371 1000.316101,78.908287 1000.002502,73.206886 
	C999.680786,67.357185 1003.479004,63.319019 1009.608826,63.004704 
	C1010.104370,62.979298 1010.603088,63.015823 1011.498718,63.070435 
z"/>
<path fill="#9CDFF9" opacity="1.000000" stroke="none" 
	d="
M186.853455,1026.956055 
	C179.916885,1032.311035 173.211411,1038.132812 164.083649,1039.437256 
	C155.625824,1040.645874 147.264496,1040.698242 139.205597,1036.255127 
	C142.148346,1032.668579 145.113983,1029.171021 148.486603,1026.123901 
	C160.294739,1015.455139 172.223297,1004.919189 184.143021,994.374512 
	C203.882339,976.912415 223.677414,959.513306 243.395081,942.026794 
	C253.569107,933.004089 263.620056,923.842651 273.747345,914.767029 
	C274.842896,913.785278 276.076660,912.957825 277.582367,912.011475 
	C284.108429,926.710999 277.566864,947.592712 264.241302,958.005432 
	C256.166779,964.314941 248.861069,971.608398 240.725922,978.789429 
	C239.550522,979.543945 238.777267,979.876587 238.180069,980.407349 
	C228.805878,988.739563 219.405640,997.043396 210.112747,1005.465698 
	C202.291626,1012.554077 194.601532,1019.787048 186.853455,1026.956055 
z"/>
<path fill="#8792DA" opacity="1.000000" stroke="none" 
	d="
M187.077499,1027.217773 
	C194.601532,1019.787048 202.291626,1012.554077 210.112747,1005.465698 
	C219.405640,997.043396 228.805878,988.739563 238.180069,980.407349 
	C238.777267,979.876587 239.550522,979.543945 240.574554,979.097412 
	C241.823273,984.474548 242.739319,989.873413 243.810699,995.651367 
	C241.786118,1003.824402 240.138290,1011.702148 234.590454,1018.233276 
	C224.972519,1029.555664 212.858078,1033.369995 198.537338,1031.657959 
	C196.736862,1031.442627 194.934814,1031.240601 192.729691,1031.078003 
	C190.651108,1029.908936 188.976334,1028.694214 187.077499,1027.217773 
z"/>
<path fill="#F8F8F8" opacity="1.000000" stroke="none" 
	d="
M464.136993,1077.240356 
	C464.360321,1077.112915 464.597839,1077.284058 464.880219,1077.729736 
	C464.645264,1077.900635 464.387299,1077.745605 464.136993,1077.240356 
z"/>
<path fill="#F2F2F2" opacity="1.000000" stroke="none" 
	d="
M307.956818,849.422363 
	C319.074219,846.076294 328.642334,848.476257 333.692810,855.456299 
	C339.644775,863.682251 338.682434,875.246948 331.482635,882.016602 
	C323.513855,889.509277 312.939575,889.885925 304.503113,882.955261 
	C303.479889,882.114624 302.544800,881.166809 301.262329,880.116943 
	C303.277863,869.921814 305.599976,859.878357 307.956818,849.422363 
z"/>
<path fill="#FFFFFF" opacity="1.000000" stroke="none" 
	d="
M1094.009766,99.989334 
	C1093.093872,98.851166 1092.178101,97.712997 1090.977539,95.978218 
	C1089.460327,92.586212 1088.227783,89.790810 1086.995117,86.995407 
	C1086.269897,78.664146 1088.798828,72.116203 1095.881226,66.888321 
	C1104.934570,60.205536 1120.212158,65.747627 1124.432739,73.622307 
	C1132.407837,88.502228 1121.401367,105.207451 1106.397461,104.014938 
	C1105.241943,103.923096 1104.072876,104.001862 1102.239624,103.732460 
	C1099.049438,102.305504 1096.529541,101.147415 1094.009766,99.989334 
z"/>
<path fill="#FEFEFE" opacity="1.000000" stroke="none" 
	d="
M1154.214844,36.813187 
	C1157.343628,41.069901 1158.277588,45.204079 1155.022583,49.404884 
	C1152.230713,53.007996 1148.620605,54.456421 1144.126221,52.907181 
	C1138.669067,51.026066 1136.316528,45.519554 1138.563721,39.944946 
	C1140.656616,34.752918 1146.021362,32.716717 1151.289429,35.139519 
	C1152.192749,35.554920 1153.043823,36.083607 1154.214844,36.813187 
z"/>
<path fill="#F5F5F5" opacity="1.000000" stroke="none" 
	d="
M1086.597900,86.999115 
	C1088.227783,89.790810 1089.460327,92.586212 1090.841553,95.694450 
	C1088.386719,93.857338 1085.783325,91.707390 1083.179810,89.557465 
	C1084.186890,88.705933 1085.193848,87.854378 1086.597900,86.999115 
z"/>
<path fill="#F5F5F5" opacity="1.000000" stroke="none" 
	d="
M1094.041260,100.344704 
	C1096.529541,101.147415 1099.049438,102.305504 1101.784668,103.731216 
	C1097.559204,107.221008 1095.381714,105.003960 1094.041260,100.344704 
z"/>
<path fill="#F2F2F2" opacity="1.000000" stroke="none" 
	d="
M352.639648,818.306274 
	C357.303345,817.357727 361.604004,816.742920 364.832397,820.723633 
	C368.320618,825.024597 367.923370,830.699707 363.966125,834.533630 
	C360.685455,837.711975 355.000977,838.081726 351.838470,835.322510 
	C347.508240,831.544250 346.717072,825.067810 350.094666,820.489807 
	C350.674835,819.703491 351.544861,819.130981 352.639648,818.306274 
z"/>
</svg>